<?xml version="1.0" encoding="UTF-8" standalone="no"?>
<!-- Created with Inkscape (http://www.inkscape.org/) -->

<svg
   xmlns:dc="http://purl.org/dc/elements/1.1/"
   xmlns:cc="http://creativecommons.org/ns#"
   xmlns:rdf="http://www.w3.org/1999/02/22-rdf-syntax-ns#"
   xmlns:svg="http://www.w3.org/2000/svg"
   xmlns="http://www.w3.org/2000/svg"
   xmlns:sodipodi="http://sodipodi.sourceforge.net/DTD/sodipodi-0.dtd"
   xmlns:inkscape="http://www.inkscape.org/namespaces/inkscape"
   width="210mm"
   height="297mm"
   viewBox="0 0 210 297"
   version="1.1"
   id="svg8"
   inkscape:version="0.92.4 (5da689c313, 2019-01-14)"
   sodipodi:docname="conceptual_model_raw.svg">
  <defs
     id="defs2">
    <clipPath
       id="clipPath833"
       clipPathUnits="userSpaceOnUse">
      <path
         style="clip-rule:evenodd"
         inkscape:connector-curvature="0"
         id="path831"
         d="M 0,1.2207e-4 H 960 V 540.00012 H 0 Z" />
    </clipPath>
    <clipPath
       id="clipPath847"
       clipPathUnits="userSpaceOnUse">
      <path
         style="clip-rule:evenodd"
         inkscape:connector-curvature="0"
         id="path845"
         d="M 1.4305e-5,0 H 960.00001 V 540 H 1.4305e-5 Z" />
    </clipPath>
    <clipPath
       id="clipPath859"
       clipPathUnits="userSpaceOnUse">
      <path
         style="clip-rule:evenodd"
         inkscape:connector-curvature="0"
         id="path857"
         d="M 1.4305e-5,0 H 960.00001 V 540 H 1.4305e-5 Z" />
    </clipPath>
    <clipPath
       id="clipPath875"
       clipPathUnits="userSpaceOnUse">
      <path
         style="clip-rule:evenodd"
         inkscape:connector-curvature="0"
         id="path873"
         d="M 1.4305e-5,0 H 960.00001 V 540 H 1.4305e-5 Z" />
    </clipPath>
    <clipPath
       id="clipPath887"
       clipPathUnits="userSpaceOnUse">
      <path
         style="clip-rule:evenodd"
         inkscape:connector-curvature="0"
         id="path885"
         d="M 1.4305e-5,0 H 960.00001 V 540 H 1.4305e-5 Z" />
    </clipPath>
    <clipPath
       id="clipPath903"
       clipPathUnits="userSpaceOnUse">
      <path
         style="clip-rule:evenodd"
         inkscape:connector-curvature="0"
         id="path901"
         d="M 1.4305e-5,0 H 960.00001 V 540 H 1.4305e-5 Z" />
    </clipPath>
    <clipPath
       id="clipPath915"
       clipPathUnits="userSpaceOnUse">
      <path
         style="clip-rule:evenodd"
         inkscape:connector-curvature="0"
         id="path913"
         d="M 1.4305e-5,0 H 960.00001 V 540 H 1.4305e-5 Z" />
    </clipPath>
    <clipPath
       id="clipPath927"
       clipPathUnits="userSpaceOnUse">
      <path
         style="clip-rule:evenodd"
         inkscape:connector-curvature="0"
         id="path925"
         d="M 1.4305e-5,0 H 960.00001 V 540 H 1.4305e-5 Z" />
    </clipPath>
    <clipPath
       id="clipPath983"
       clipPathUnits="userSpaceOnUse">
      <path
         style="clip-rule:evenodd"
         inkscape:connector-curvature="0"
         id="path981"
         d="M 1.4305e-5,0 H 960.00001 V 540 H 1.4305e-5 Z" />
    </clipPath>
    <clipPath
       id="clipPath995"
       clipPathUnits="userSpaceOnUse">
      <path
         style="clip-rule:evenodd"
         inkscape:connector-curvature="0"
         id="path993"
         d="M 1.3766e-5,540 H 960 V 1.2207e-4 H -2.8204e-5" />
    </clipPath>
    <clipPath
       id="clipPath1005"
       clipPathUnits="userSpaceOnUse">
      <path
         style="clip-rule:evenodd"
         inkscape:connector-curvature="0"
         id="path1003"
         d="M 1.4305e-5,0 H 960.00001 V 540 H 1.4305e-5 Z" />
    </clipPath>
    <clipPath
       id="clipPath1017"
       clipPathUnits="userSpaceOnUse">
      <path
         style="clip-rule:evenodd"
         inkscape:connector-curvature="0"
         id="path1015"
         d="M -2.7344e-5,540 H 960 V 6.1035e-5 H -3.3802e-5" />
    </clipPath>
    <clipPath
       id="clipPath1035"
       clipPathUnits="userSpaceOnUse">
      <path
         style="clip-rule:evenodd"
         inkscape:connector-curvature="0"
         id="path1033"
         d="M 1.4305e-5,0 H 960.00001 V 540 H 1.4305e-5 Z" />
    </clipPath>
    <clipPath
       id="clipPath1053"
       clipPathUnits="userSpaceOnUse">
      <path
         style="clip-rule:evenodd"
         inkscape:connector-curvature="0"
         id="path1051"
         d="M 1.4305e-5,0 H 960.00001 V 540 H 1.4305e-5 Z" />
    </clipPath>
    <clipPath
       id="clipPath1101"
       clipPathUnits="userSpaceOnUse">
      <path
         style="clip-rule:evenodd"
         inkscape:connector-curvature="0"
         id="path1099"
         d="M 1.4305e-5,0 H 960.00001 V 540 H 1.4305e-5 Z" />
    </clipPath>
    <clipPath
       id="clipPath1119"
       clipPathUnits="userSpaceOnUse">
      <path
         style="clip-rule:evenodd"
         inkscape:connector-curvature="0"
         id="path1117"
         d="M 1.4305e-5,0 H 960.00001 V 540 H 1.4305e-5 Z" />
    </clipPath>
    <clipPath
       id="clipPath1135"
       clipPathUnits="userSpaceOnUse">
      <path
         style="clip-rule:evenodd"
         inkscape:connector-curvature="0"
         id="path1133"
         d="M 1.4305e-5,0 H 960.00001 V 540 H 1.4305e-5 Z" />
    </clipPath>
    <clipPath
       id="clipPath1151"
       clipPathUnits="userSpaceOnUse">
      <path
         style="clip-rule:evenodd"
         inkscape:connector-curvature="0"
         id="path1149"
         d="M 1.961e-5,540 H 960 V 1.2207e-4 H -2.1336e-5" />
    </clipPath>
    <clipPath
       id="clipPath1161"
       clipPathUnits="userSpaceOnUse">
      <path
         style="clip-rule:evenodd"
         inkscape:connector-curvature="0"
         id="path1159"
         d="M -1.2298e-5,540 H 960 V 1.2207e-4 H -3.6361e-5" />
    </clipPath>
    <clipPath
       id="clipPath1171"
       clipPathUnits="userSpaceOnUse">
      <path
         style="clip-rule:evenodd"
         inkscape:connector-curvature="0"
         id="path1169"
         d="M -1.2298e-5,540 H 960 V 1.2207e-4 H -3.6361e-5" />
    </clipPath>
    <clipPath
       id="clipPath1181"
       clipPathUnits="userSpaceOnUse">
      <path
         style="clip-rule:evenodd"
         inkscape:connector-curvature="0"
         id="path1179"
         d="M -1.2298e-5,540 H 960 V 1.2207e-4 H -3.6361e-5" />
    </clipPath>
    <clipPath
       id="clipPath1195"
       clipPathUnits="userSpaceOnUse">
      <path
         style="clip-rule:evenodd"
         inkscape:connector-curvature="0"
         id="path1193"
         d="M -2.461e-5,540 H 960 V 1.8311e-4 H -3.4153e-5" />
    </clipPath>
    <clipPath
       id="clipPath1205"
       clipPathUnits="userSpaceOnUse">
      <path
         style="clip-rule:evenodd"
         inkscape:connector-curvature="0"
         id="path1203"
         d="M -2.461e-5,540 H 960 V 1.8311e-4 H -3.4153e-5" />
    </clipPath>
    <clipPath
       id="clipPath1215"
       clipPathUnits="userSpaceOnUse">
      <path
         style="clip-rule:evenodd"
         inkscape:connector-curvature="0"
         id="path1213"
         d="M -2.461e-5,540 H 960 V 1.8311e-4 H -3.4153e-5" />
    </clipPath>
    <clipPath
       id="clipPath1225"
       clipPathUnits="userSpaceOnUse">
      <path
         style="clip-rule:evenodd"
         inkscape:connector-curvature="0"
         id="path1223"
         d="M -8.003e-6,540 H 960 V 1.8311e-4 L -1.7884e-5,1.2207e-4" />
    </clipPath>
    <clipPath
       id="clipPath1235"
       clipPathUnits="userSpaceOnUse">
      <path
         style="clip-rule:evenodd"
         inkscape:connector-curvature="0"
         id="path1233"
         d="M -8.003e-6,540 H 960 V 1.8311e-4 L -1.7884e-5,1.2207e-4" />
    </clipPath>
    <clipPath
       id="clipPath1245"
       clipPathUnits="userSpaceOnUse">
      <path
         style="clip-rule:evenodd"
         inkscape:connector-curvature="0"
         id="path1243"
         d="M -8.003e-6,540 H 960 V 1.8311e-4 L -1.7884e-5,1.2207e-4" />
    </clipPath>
    <clipPath
       id="clipPath1255"
       clipPathUnits="userSpaceOnUse">
      <path
         style="clip-rule:evenodd"
         inkscape:connector-curvature="0"
         id="path1253"
         d="M -2.3262e-5,540 H 960 V 1.8311e-4 L -3.8833e-5,1.2207e-4" />
    </clipPath>
    <clipPath
       id="clipPath1265"
       clipPathUnits="userSpaceOnUse">
      <path
         style="clip-rule:evenodd"
         inkscape:connector-curvature="0"
         id="path1263"
         d="M -2.3262e-5,540 H 960 V 1.8311e-4 L -3.8833e-5,1.2207e-4" />
    </clipPath>
    <clipPath
       id="clipPath1275"
       clipPathUnits="userSpaceOnUse">
      <path
         style="clip-rule:evenodd"
         inkscape:connector-curvature="0"
         id="path1273"
         d="M -2.3262e-5,540 H 960 V 1.8311e-4 L -3.8833e-5,1.2207e-4" />
    </clipPath>
    <clipPath
       id="clipPath1285"
       clipPathUnits="userSpaceOnUse">
      <path
         style="clip-rule:evenodd"
         inkscape:connector-curvature="0"
         id="path1283"
         d="M 1.8499e-5,540 H 960 V 1.8311e-4 L -1.019e-6,1.2207e-4" />
    </clipPath>
    <clipPath
       id="clipPath1295"
       clipPathUnits="userSpaceOnUse">
      <path
         style="clip-rule:evenodd"
         inkscape:connector-curvature="0"
         id="path1293"
         d="M 1.8499e-5,540 H 960 V 1.8311e-4 L -1.019e-6,1.2207e-4" />
    </clipPath>
    <clipPath
       id="clipPath1305"
       clipPathUnits="userSpaceOnUse">
      <path
         style="clip-rule:evenodd"
         inkscape:connector-curvature="0"
         id="path1303"
         d="M 1.8499e-5,540 H 960 V 1.8311e-4 L -1.019e-6,1.2207e-4" />
    </clipPath>
    <clipPath
       id="clipPath1331"
       clipPathUnits="userSpaceOnUse">
      <path
         style="clip-rule:evenodd"
         inkscape:connector-curvature="0"
         id="path1329"
         d="M 1.4305e-5,0 H 960.00001 V 540 H 1.4305e-5 Z" />
    </clipPath>
    <clipPath
       id="clipPath1349"
       clipPathUnits="userSpaceOnUse">
      <path
         style="clip-rule:evenodd"
         inkscape:connector-curvature="0"
         id="path1347"
         d="M 1.4305e-5,0 H 960.00001 V 540 H 1.4305e-5 Z" />
    </clipPath>
    <clipPath
       id="clipPath1365"
       clipPathUnits="userSpaceOnUse">
      <path
         style="clip-rule:evenodd"
         inkscape:connector-curvature="0"
         id="path1363"
         d="M 1.4305e-5,0 H 960.00001 V 540 H 1.4305e-5 Z" />
    </clipPath>
    <clipPath
       id="clipPath1425"
       clipPathUnits="userSpaceOnUse">
      <path
         style="clip-rule:evenodd"
         inkscape:connector-curvature="0"
         id="path1423"
         d="M 1.4305e-5,0 H 960.00001 V 540 H 1.4305e-5 Z" />
    </clipPath>
    <clipPath
       id="clipPath1443"
       clipPathUnits="userSpaceOnUse">
      <path
         style="clip-rule:evenodd"
         inkscape:connector-curvature="0"
         id="path1441"
         d="M 1.4305e-5,0 H 960.00001 V 540 H 1.4305e-5 Z" />
    </clipPath>
  </defs>
  <sodipodi:namedview
     id="base"
     pagecolor="#ffffff"
     bordercolor="#666666"
     borderopacity="1.0"
     inkscape:pageopacity="0.0"
     inkscape:pageshadow="2"
     inkscape:zoom="0.98994949"
     inkscape:cx="354.54561"
     inkscape:cy="803.11456"
     inkscape:document-units="mm"
     inkscape:current-layer="layer1"
     showgrid="true"
     inkscape:window-width="1920"
     inkscape:window-height="1001"
     inkscape:window-x="-9"
     inkscape:window-y="-9"
     inkscape:window-maximized="1">
    <inkscape:grid
       type="xygrid"
       id="grid815" />
  </sodipodi:namedview>
  <metadata
     id="metadata5">
    <rdf:RDF>
      <cc:Work
         rdf:about="">
        <dc:format>image/svg+xml</dc:format>
        <dc:type
           rdf:resource="http://purl.org/dc/dcmitype/StillImage" />
        <dc:title></dc:title>
      </cc:Work>
    </rdf:RDF>
  </metadata>
  <g
     inkscape:label="Capa 1"
     inkscape:groupmode="layer"
     id="layer1">
    <g
       id="g2243">
      <path
         inkscape:connector-curvature="0"
         id="path837"
         style="fill:#c55a11;fill-opacity:0.50196054;fill-rule:evenodd;stroke:none;stroke-width:0.35277778"
         d="M -10.773832,152.70683 H 229.21383 V 72.739162 H -10.773832 Z" />
      <path
         inkscape:connector-curvature="0"
         id="path839"
         style="fill:none;stroke:#ffffff;stroke-width:0.35277778;stroke-linecap:butt;stroke-linejoin:miter;stroke-miterlimit:10;stroke-dasharray:none;stroke-opacity:1"
         d="M -10.773832,152.70683 H 229.21383 V 72.739162 H -10.773832 Z" />
      <g
         transform="matrix(0.35277777,0,0,-0.35277777,-76.559831,173.83116)"
         id="g841">
        <g
           clip-path="url(#clipPath847)"
           id="g843">
          <text
             id="text851"
             style="font-variant:normal;font-weight:normal;font-size:24px;font-family:Arial;-inkscape-font-specification:ArialMT;writing-mode:lr-tb;fill:#000000;fill-opacity:1;fill-rule:nonzero;stroke:none"
             transform="matrix(1,0,0,-1,703.3,436.78)">
            <tspan
               id="tspan849"
               sodipodi:role="line"
               y="0"
               x="0 18.672001 26.736 40.080002 52.080002 64.080002 69.407997 82.655998 96">Grassland</tspan>
          </text>
        </g>
      </g>
      <g
         transform="matrix(0.35277777,0,0,-0.35277777,-76.559831,173.83116)"
         id="g853">
        <g
           clip-path="url(#clipPath859)"
           id="g855">
          <text
             id="text863"
             style="font-variant:normal;font-weight:normal;font-size:24px;font-family:Arial;-inkscape-font-specification:ArialMT;writing-mode:lr-tb;fill:#000000;fill-opacity:1;fill-rule:nonzero;stroke:none"
             transform="matrix(1,0,0,-1,358.75,436.78)">
            <tspan
               id="tspan861"
               sodipodi:role="line"
               y="0"
               x="0 16.007999 29.280001 37.271999 50.616001 63.959999 69.288002 82.559998 95.903999">Shrubland</tspan>
          </text>
        </g>
      </g>
      <path
         inkscape:connector-curvature="0"
         id="path865"
         style="fill:none;stroke:#0d0d0d;stroke-width:0.52916664;stroke-linecap:butt;stroke-linejoin:miter;stroke-miterlimit:10;stroke-dasharray:none;stroke-opacity:1"
         d="m 230.71666,72.760329 c 1.18181,0 2.13784,0.15875 2.13784,0.356305 v 9.383889 c 0,0.197556 0.95602,0.356306 2.13783,0.356306 -1.18181,0 -2.13783,0.15875 -2.13783,0.356305 v 9.383889 c 0,0.197555 -0.95603,0.356305 -2.13784,0.356305" />
      <path
         inkscape:connector-curvature="0"
         id="path867"
         style="fill:none;stroke:#0d0d0d;stroke-width:0.52916664;stroke-linecap:butt;stroke-linejoin:miter;stroke-miterlimit:10;stroke-dasharray:none;stroke-opacity:1"
         d="m 230.71666,92.953328 c 1.18181,0 2.13784,0.15875 2.13784,0.356306 v 29.322886 c 0,0.19756 0.95602,0.35631 2.13783,0.35631 -1.18181,0 -2.13783,0.15875 -2.13783,0.3563 v 29.32289 c 0,0.19685 -0.95603,0.35631 -2.13784,0.35631" />
      <g
         transform="matrix(0.35277777,0,0,-0.35277777,-76.559831,173.83116)"
         id="g869">
        <g
           clip-path="url(#clipPath875)"
           id="g871">
          <text
             id="text879"
             style="font-variant:normal;font-weight:normal;font-size:15.98400021px;font-family:Arial;-inkscape-font-specification:ArialMT;writing-mode:lr-tb;fill:#000000;fill-opacity:1;fill-rule:nonzero;stroke:none"
             transform="matrix(1,0,0,-1,890.45,252.05)">
            <tspan
               id="tspan877"
               sodipodi:role="line"
               y="0"
               x="0 8.887104 13.330656 22.21776 26.741232">0.5 m</tspan>
          </text>
        </g>
      </g>
      <g
         transform="matrix(0.35277777,0,0,-0.35277777,-76.559831,173.83116)"
         id="g881">
        <g
           clip-path="url(#clipPath887)"
           id="g883">
          <text
             id="text891"
             style="font-variant:normal;font-weight:normal;font-size:15.96000004px;font-family:Arial;-inkscape-font-specification:ArialMT;writing-mode:lr-tb;fill:#000000;fill-opacity:1;fill-rule:nonzero;stroke:none"
             transform="matrix(1,0,0,-1,890.45,138.22)">
            <tspan
               id="tspan889"
               sodipodi:role="line"
               y="0"
               x="0 8.8737602 13.31064 22.184401 26.74896">2.0 m</tspan>
          </text>
        </g>
      </g>
      <path
         inkscape:connector-curvature="0"
         id="path893"
         style="fill:none;stroke:#0d0d0d;stroke-width:0.52916664;stroke-linecap:butt;stroke-linejoin:miter;stroke-miterlimit:10;stroke-dasharray:none;stroke-opacity:1"
         d="m -11.768666,72.760329 c -1.181805,0 -2.137833,0.15875 -2.137833,0.356305 v 9.383889 c 0,0.197556 -0.956028,0.356306 -2.137833,0.356306 1.181805,0 2.137833,0.15875 2.137833,0.356305 v 9.383889 c 0,0.197555 0.956028,0.356305 2.137833,0.356305" />
      <path
         inkscape:connector-curvature="0"
         id="path895"
         style="fill:none;stroke:#0d0d0d;stroke-width:0.52916664;stroke-linecap:butt;stroke-linejoin:miter;stroke-miterlimit:10;stroke-dasharray:none;stroke-opacity:1"
         d="m -11.768666,92.953328 c -1.181805,0 -2.137833,0.15875 -2.137833,0.356306 v 29.322886 c 0,0.19756 -0.956028,0.35631 -2.137833,0.35631 1.181805,0 2.137833,0.15875 2.137833,0.3563 v 29.32289 c 0,0.19685 0.956028,0.35631 2.137833,0.35631" />
      <g
         transform="matrix(0.35277777,0,0,-0.35277777,-76.559831,173.83116)"
         id="g897">
        <g
           clip-path="url(#clipPath903)"
           id="g899">
          <text
             id="text907"
             style="font-variant:normal;font-weight:normal;font-size:15.96000004px;font-family:Arial;-inkscape-font-specification:ArialMT;writing-mode:lr-tb;fill:#000000;fill-opacity:1;fill-rule:nonzero;stroke:none"
             transform="matrix(1,0,0,-1,71.904,252.62)">
            <tspan
               id="tspan905"
               sodipodi:role="line"
               y="0"
               x="0 8.8737602 14.18844 23.062201 34.441681 38.878559 47.752319 52.4286 61.302361 70.176117 79.049881">growth pool</tspan>
          </text>
        </g>
      </g>
      <g
         transform="matrix(0.35277777,0,0,-0.35277777,-76.559831,173.83116)"
         id="g909">
        <g
           clip-path="url(#clipPath915)"
           id="g911">
          <text
             id="text919"
             style="font-variant:normal;font-weight:normal;font-size:15.96000004px;font-family:Arial;-inkscape-font-specification:ArialMT;writing-mode:lr-tb;fill:#000000;fill-opacity:1;fill-rule:nonzero;stroke:none"
             transform="matrix(1,0,0,-1,31.344,138.79)">
            <tspan
               id="tspan917"
               y="0"
               x="0">m</tspan>
          </text>
        </g>
      </g>
      <g
         transform="matrix(0.35277777,0,0,-0.35277777,-76.559831,173.83116)"
         id="g921">
        <g
           clip-path="url(#clipPath927)"
           id="g923">
          <text
             id="text931"
             style="font-variant:normal;font-weight:normal;font-size:15.96000004px;font-family:Arial;-inkscape-font-specification:ArialMT;writing-mode:lr-tb;fill:#000000;fill-opacity:1;fill-rule:nonzero;stroke:none"
             transform="matrix(1,0,0,-1,44.664,138.79)">
            <tspan
               id="tspan929"
               sodipodi:role="line"
               y="0"
               x="0 8.8737602 12.46476 21.33852 25.7754 34.649158 43.522919 52.396679 61.270439 69.330238 78.204002 82.640877 91.514641 100.3884 109.26216">aintenance pool</tspan>
          </text>
        </g>
      </g>
      <path
         inkscape:connector-curvature="0"
         id="path933"
         style="fill:none;stroke:#c55a11;stroke-width:0.17638889;stroke-linecap:butt;stroke-linejoin:miter;stroke-miterlimit:10;stroke-dasharray:none;stroke-opacity:1"
         d="M 21.695834,124.16005 V 56.229163" />
      <path
         inkscape:connector-curvature="0"
         id="path935"
         style="fill:#548235;fill-opacity:1;fill-rule:evenodd;stroke:none;stroke-width:0.35277778"
         d="m 200.25783,73.670496 c 0.23636,-2.2225 0.46919,-4.448528 1.94381,-7.013223 1.47108,-2.564694 5.53508,-7.22136 6.89327,-8.374944 1.3582,-1.153583 1.31234,0.155222 1.26295,1.4605" />
      <path
         inkscape:connector-curvature="0"
         id="path937"
         style="fill:none;stroke:#548235;stroke-width:0.35277778;stroke-linecap:butt;stroke-linejoin:miter;stroke-miterlimit:10;stroke-dasharray:none;stroke-opacity:1"
         d="m 200.25783,73.670496 c 0.23636,-2.2225 0.46919,-4.448528 1.94381,-7.013223 1.47108,-2.564694 5.53508,-7.22136 6.89327,-8.374944 1.3582,-1.153583 1.31234,0.155222 1.26295,1.4605" />
      <path
         inkscape:connector-curvature="0"
         id="path939"
         style="fill:#548235;fill-opacity:1;fill-rule:evenodd;stroke:none;stroke-width:0.35277778"
         d="m 200.25783,73.458829 c -0.13053,-1.354667 -0.26106,-2.709333 -0.87489,-5.351639 -0.61736,-2.642305 -1.18533,-8.187972 -2.82575,-10.505722 -1.63689,-2.31775 -4.32505,-2.861028 -7.00969,-3.404305" />
      <path
         inkscape:connector-curvature="0"
         id="path941"
         style="fill:none;stroke:#548235;stroke-width:0.35277778;stroke-linecap:butt;stroke-linejoin:miter;stroke-miterlimit:10;stroke-dasharray:none;stroke-opacity:1"
         d="m 200.25783,73.458829 c -0.13053,-1.354667 -0.26106,-2.709333 -0.87489,-5.351639 -0.61736,-2.642305 -1.18533,-8.187972 -2.82575,-10.505722 -1.63689,-2.31775 -4.32505,-2.861028 -7.00969,-3.404305" />
      <path
         inkscape:connector-curvature="0"
         id="path943"
         style="fill:#548235;fill-opacity:1;fill-rule:evenodd;stroke:none;stroke-width:0.35277778"
         d="m 200.25783,73.374162 c 0.0811,-1.298222 0.16228,-2.599972 1.26294,-3.704166 1.1042,-1.104195 4.08517,-2.76225 5.34811,-2.924528 1.26295,-0.162278 1.74978,0.892528 2.23662,1.947333" />
      <path
         inkscape:connector-curvature="0"
         id="path945"
         style="fill:none;stroke:#548235;stroke-width:0.35277778;stroke-linecap:butt;stroke-linejoin:miter;stroke-miterlimit:10;stroke-dasharray:none;stroke-opacity:1"
         d="m 200.25783,73.374162 c 0.0811,-1.298222 0.16228,-2.599972 1.26294,-3.704166 1.1042,-1.104195 4.08517,-2.76225 5.34811,-2.924528 1.26295,-0.162278 1.74978,0.892528 2.23662,1.947333" />
      <path
         inkscape:connector-curvature="0"
         id="path947"
         style="fill:#548235;fill-opacity:1;fill-rule:evenodd;stroke:none;stroke-width:0.35277778"
         d="m 200.13083,73.543496 c -0.0564,-1.827389 -0.11289,-3.65125 -1.06892,-5.041195 -0.95602,-1.389944 -3.57716,-3.347861 -4.66372,-3.298472 -1.08303,0.04939 -1.46403,1.820333 -1.84503,3.58775" />
      <path
         inkscape:connector-curvature="0"
         id="path949"
         style="fill:none;stroke:#548235;stroke-width:0.35277778;stroke-linecap:butt;stroke-linejoin:miter;stroke-miterlimit:10;stroke-dasharray:none;stroke-opacity:1"
         d="m 200.13083,73.543496 c -0.0564,-1.827389 -0.11289,-3.65125 -1.06892,-5.041195 -0.95602,-1.389944 -3.57716,-3.347861 -4.66372,-3.298472 -1.08303,0.04939 -1.46403,1.820333 -1.84503,3.58775" />
      <path
         inkscape:connector-curvature="0"
         id="path951"
         style="fill:#548235;fill-opacity:1;fill-rule:evenodd;stroke:none;stroke-width:0.35277778"
         d="m 200.33191,73.755162 c -0.15522,-1.993194 -0.31044,-3.989916 -0.0988,-6.321777 0.21166,-2.335389 0.49036,-5.090584 1.36877,-7.687028 0.87842,-2.592917 2.39184,-5.235222 3.90525,-7.877528" />
      <path
         inkscape:connector-curvature="0"
         id="path953"
         style="fill:none;stroke:#548235;stroke-width:0.35277778;stroke-linecap:butt;stroke-linejoin:miter;stroke-miterlimit:10;stroke-dasharray:none;stroke-opacity:1"
         d="m 200.33191,73.755162 c -0.15522,-1.993194 -0.31044,-3.989916 -0.0988,-6.321777 0.21166,-2.335389 0.49036,-5.090584 1.36877,-7.687028 0.87842,-2.592917 2.39184,-5.235222 3.90525,-7.877528" />
      <path
         inkscape:connector-curvature="0"
         id="path955"
         style="fill:#548235;fill-opacity:1;fill-rule:evenodd;stroke:none;stroke-width:0.35277778"
         d="m 199.93327,73.966829 c 0.13406,-4.54025 0.26812,-9.084028 0,-12.555361 -0.27163,-3.471333 -0.94544,-5.870222 -1.62277,-8.272639" />
      <path
         inkscape:connector-curvature="0"
         id="path957"
         style="fill:none;stroke:#548235;stroke-width:0.35277778;stroke-linecap:butt;stroke-linejoin:miter;stroke-miterlimit:10;stroke-dasharray:none;stroke-opacity:1"
         d="m 199.93327,73.966829 c 0.13406,-4.54025 0.26812,-9.084028 0,-12.555361 -0.27163,-3.471333 -0.94544,-5.870222 -1.62277,-8.272639" />
      <path
         inkscape:connector-curvature="0"
         id="path959"
         style="fill:none;stroke:#c55a11;stroke-width:0.52916664;stroke-linecap:butt;stroke-linejoin:miter;stroke-miterlimit:10;stroke-dasharray:none;stroke-opacity:1"
         d="M 200.152,73.776329 189.27233,93.334328" />
      <path
         inkscape:connector-curvature="0"
         id="path961"
         style="fill:none;stroke:#c55a11;stroke-width:0.52916664;stroke-linecap:butt;stroke-linejoin:miter;stroke-miterlimit:10;stroke-dasharray:none;stroke-opacity:1"
         d="m 200.36366,73.860996 8.255,19.684999" />
      <path
         inkscape:connector-curvature="0"
         id="path963"
         style="fill:none;stroke:#c55a11;stroke-width:0.52916664;stroke-linecap:butt;stroke-linejoin:miter;stroke-miterlimit:10;stroke-dasharray:none;stroke-opacity:1"
         d="m 200.23666,74.072662 -1.05833,19.346333" />
      <path
         inkscape:connector-curvature="0"
         id="path965"
         style="fill:none;stroke:#c55a11;stroke-width:0.52916664;stroke-linecap:butt;stroke-linejoin:miter;stroke-miterlimit:10;stroke-dasharray:none;stroke-opacity:1"
         d="m 195.961,81.226995 -5.54567,2.54" />
      <path
         inkscape:connector-curvature="0"
         id="path967"
         style="fill:none;stroke:#c55a11;stroke-width:0.52916664;stroke-linecap:butt;stroke-linejoin:miter;stroke-miterlimit:10;stroke-dasharray:none;stroke-opacity:1"
         d="m 192.61666,87.153662 1.143,4.529666" />
      <path
         inkscape:connector-curvature="0"
         id="path969"
         style="fill:none;stroke:#c55a11;stroke-width:0.52916664;stroke-linecap:butt;stroke-linejoin:miter;stroke-miterlimit:10;stroke-dasharray:none;stroke-opacity:1"
         d="m 199.55933,84.528995 -2.75167,2.54" />
      <path
         inkscape:connector-curvature="0"
         id="path971"
         style="fill:none;stroke:#c55a11;stroke-width:0.52916664;stroke-linecap:butt;stroke-linejoin:miter;stroke-miterlimit:10;stroke-dasharray:none;stroke-opacity:1"
         d="m 202.86133,79.618329 3.302,1.862666" />
      <path
         inkscape:connector-curvature="0"
         id="path973"
         style="fill:none;stroke:#c55a11;stroke-width:0.52916664;stroke-linecap:butt;stroke-linejoin:miter;stroke-miterlimit:10;stroke-dasharray:none;stroke-opacity:1"
         d="m 205.613,86.560995 -1.35467,3.725334" />
      <path
         inkscape:connector-curvature="0"
         id="path975"
         style="fill:none;stroke:#c55a11;stroke-width:0.52916664;stroke-linecap:butt;stroke-linejoin:miter;stroke-miterlimit:10;stroke-dasharray:none;stroke-opacity:1"
         d="M 199.43233,90.074662 201.93,92.572328" />
      <g
         transform="matrix(0.35277777,0,0,-0.35277777,-76.559831,173.83116)"
         id="g977">
        <g
           clip-path="url(#clipPath983)"
           id="g979">
          <text
             id="text987"
             style="font-variant:normal;font-weight:normal;font-size:15.96000004px;font-family:Arial;-inkscape-font-specification:ArialMT;writing-mode:lr-tb;fill:#000000;fill-opacity:1;fill-rule:nonzero;stroke:none"
             transform="matrix(1,0,0,-1,852.31,387.12)">
            <tspan
               id="tspan985"
               sodipodi:role="line"
               y="0"
               x="0 10.64532 15.96 24.833759 32.861641 36.452641 45.326401 48.9174 53.354279 62.228039 66.664917 70.25592 79.129677">Precipitation</tspan>
          </text>
        </g>
      </g>
      <g
         transform="matrix(0.35277777,0,0,-0.35277777,-76.559831,173.83116)"
         id="g989">
        <g
           clip-path="url(#clipPath995)"
           id="g991">
          <path
             inkscape:connector-curvature="0"
             id="path997"
             style="fill:#ff0000;fill-opacity:1;fill-rule:nonzero;stroke:none"
             d="m 843.02,387.03 -4.2,0.27 h 0.02 l -4.15,0.19 h 0.05 l -2.05,0.03 h 0.03 l -2.02,-0.02 h 0.06 l -1.98,-0.08 0.06,0.01 -1.93,-0.16 h 0.07 l -1.88,-0.24 0.08,0.02 -1.83,-0.34 0.1,0.02 -1.76,-0.45 0.1,0.03 -1.69,-0.55 0.12,0.04 -1.62,-0.69 0.12,0.06 -1.54,-0.83 0.13,0.08 -1.45,-0.97 0.13,0.09 -1.35,-1.13 0.11,0.11 -1.25,-1.3 0.1,0.11 -1.17,-1.47 0.08,0.1 -1.08,-1.6 0.06,0.09 -0.99,-1.74 0.04,0.08 -0.91,-1.87 0.03,0.07 -0.84,-1.98 0.03,0.05 -0.79,-2.1 0.02,0.06 -0.73,-2.19 0.02,0.04 -0.68,-2.27 0.01,0.04 -0.63,-2.35 0.01,0.03 -0.59,-2.41 v 0.02 l -0.56,-2.47 0.01,0.04 -0.58,-2.83 -2.94,0.6 0.58,2.85 0.57,2.49 0.6,2.44 0.64,2.39 0.69,2.31 0.74,2.24 0.81,2.16 0.87,2.05 0.95,1.95 1.04,1.83 1.14,1.7 1.24,1.57 1.36,1.41 1.47,1.23 1.58,1.06 1.66,0.89 1.74,0.75 1.8,0.59 1.86,0.47 1.92,0.36 1.96,0.24 1.99,0.17 2.03,0.08 2.06,0.02 2.08,-0.03 4.19,-0.19 4.23,-0.27 z m -35.43,-29.48 -6.19,-7.93 -2.63,9.71 z" />
        </g>
      </g>
      <g
         transform="matrix(0.35277777,0,0,-0.35277777,-76.559831,173.83116)"
         id="g999">
        <g
           clip-path="url(#clipPath1005)"
           id="g1001">
          <text
             id="text1009"
             style="font-variant:normal;font-weight:normal;font-size:15.96000004px;font-family:Arial;-inkscape-font-specification:ArialMT;writing-mode:lr-tb;fill:#000000;fill-opacity:1;fill-rule:nonzero;stroke:none"
             transform="matrix(1,0,0,-1,819.86,292.66)">
            <tspan
               id="tspan1007"
               sodipodi:role="line"
               y="0"
               x="0 10.64532 14.26824 23.142 36.468601 45.342361 53.370239">Biomass</tspan>
          </text>
        </g>
      </g>
      <g
         transform="matrix(0.35277777,0,0,-0.35277777,-76.559831,173.83116)"
         id="g1011">
        <g
           clip-path="url(#clipPath1017)"
           id="g1013">
          <path
             inkscape:connector-curvature="0"
             id="path1019"
             style="fill:#ff0000;fill-opacity:1;fill-rule:nonzero;stroke:none"
             d="m 777.29,271.46 -3.69,0.68 0.03,-0.01 -3.65,0.6 h 0.03 l -1.79,0.25 0.04,-0.01 -1.77,0.2 h 0.04 l -1.73,0.14 h 0.05 l -1.7,0.08 h 0.07 l -1.65,0.01 h 0.08 l -1.61,-0.08 h 0.09 l -1.56,-0.16 0.12,0.02 -1.48,-0.28 0.11,0.02 -1.43,-0.38 0.14,0.04 -1.36,-0.5 0.15,0.07 -1.28,-0.64 0.14,0.08 -1.2,-0.77 0.15,0.1 -1.11,-0.92 0.12,0.11 -1.03,-1.06 0.09,0.11 -0.95,-1.19 0.08,0.1 -0.89,-1.31 0.06,0.09 -0.82,-1.42 0.04,0.08 -0.75,-1.52 0.03,0.07 -0.71,-1.62 0.03,0.06 -0.66,-1.69 0.02,0.04 -0.61,-1.77 0.01,0.04 -0.57,-1.83 0.01,0.03 -0.54,-1.9 0.02,0.05 -0.67,-2.69 -2.91,0.73 0.67,2.71 0.55,1.94 0.58,1.88 0.64,1.82 0.67,1.75 0.73,1.68 0.8,1.6 0.86,1.51 0.95,1.4 1.04,1.29 1.13,1.17 1.24,1.03 1.35,0.87 1.42,0.71 1.5,0.55 1.55,0.42 1.6,0.3 1.65,0.17 1.69,0.09 1.72,-0.01 1.76,-0.09 1.78,-0.14 1.82,-0.21 1.82,-0.25 3.69,-0.61 3.7,-0.67 z m -30.19,-17.89 -6.46,-7.72 -2.3,9.8 z" />
        </g>
      </g>
      <path
         inkscape:connector-curvature="0"
         id="path1021"
         style="fill:#4472c4;fill-opacity:1;fill-rule:evenodd;stroke:none;stroke-width:0.35277778"
         d="m 238.21672,29.386302 h 3.671 v -1.174891 h -3.671 z" />
      <path
         inkscape:connector-curvature="0"
         id="path1023"
         style="fill:none;stroke:#2f528f;stroke-width:0.35277778;stroke-linecap:butt;stroke-linejoin:miter;stroke-miterlimit:10;stroke-dasharray:none;stroke-opacity:1"
         d="m 238.21672,29.386302 h 3.671 v -1.174891 h -3.671 z" />
      <path
         inkscape:connector-curvature="0"
         id="path1025"
         style="fill:#4472c4;fill-opacity:1;fill-rule:evenodd;stroke:none;stroke-width:0.35277778"
         d="m 221.87605,63.235329 h 3.67101 V 62.05049 h -3.67101 z" />
      <path
         inkscape:connector-curvature="0"
         id="path1027"
         style="fill:none;stroke:#2f528f;stroke-width:0.35277778;stroke-linecap:butt;stroke-linejoin:miter;stroke-miterlimit:10;stroke-dasharray:none;stroke-opacity:1"
         d="m 221.87605,63.235329 h 3.67101 V 62.05049 h -3.67101 z" />
      <g
         transform="matrix(0.35277777,0,0,-0.35277777,-76.559831,173.83116)"
         id="g1029">
        <g
           clip-path="url(#clipPath1035)"
           id="g1031">
          <text
             id="text1039"
             style="font-variant:normal;font-weight:normal;font-size:15.98400021px;font-family:Arial;-inkscape-font-specification:ArialMT;writing-mode:lr-tb;fill:#000000;fill-opacity:1;fill-rule:nonzero;stroke:none"
             transform="matrix(1,0,0,-1,651.94,243.38)">
            <tspan
               id="tspan1037"
               sodipodi:role="line"
               y="0"
               x="0 8.0239677 16.911072 20.45952 24.087889 28.291679 39.688271 48.575375 53.018929 61.906033">soil water</tspan>
          </text>
        </g>
      </g>
      <path
         inkscape:connector-curvature="0"
         id="path1041"
         style="fill:#4472c4;fill-opacity:1;fill-rule:evenodd;stroke:none;stroke-width:0.35277778"
         d="m 164.09105,80.567301 h 3.67101 V 79.39241 h -3.67101 z" />
      <path
         inkscape:connector-curvature="0"
         id="path1043"
         style="fill:none;stroke:#2f528f;stroke-width:0.35277778;stroke-linecap:butt;stroke-linejoin:miter;stroke-miterlimit:10;stroke-dasharray:none;stroke-opacity:1"
         d="m 164.09105,80.567301 h 3.67101 V 79.39241 h -3.67101 z" />
      <path
         inkscape:connector-curvature="0"
         id="path1045"
         style="fill:#4472c4;fill-opacity:0.50196054;fill-rule:evenodd;stroke:none;stroke-width:0.35277778"
         d="M 148.86516,152.70683 H 229.1715 V 93.313162 h -80.30634 z" />
      <g
         transform="matrix(0.35277777,0,0,-0.35277777,-76.559831,173.83116)"
         id="g1047">
        <g
           clip-path="url(#clipPath1053)"
           id="g1049">
          <text
             id="text1057"
             style="font-variant:normal;font-weight:normal;font-size:15.96000004px;font-family:Arial;-inkscape-font-specification:ArialMT;writing-mode:lr-tb;fill:#000000;fill-opacity:1;fill-rule:nonzero;stroke:none"
             transform="matrix(1,0,0,-1,652.03,136.68)">
            <tspan
               id="tspan1055"
               sodipodi:role="line"
               y="0"
               x="0 8.0278797 16.90164 25.7754 33.819241 38.256119 47.129879 56.003639 60.440521 65.005081 73.032959 81.906723 85.497719 89.088722 93.286201 104.68164 113.5554 117.99228 126.86604">constant soil water</tspan>
          </text>
        </g>
      </g>
      <path
         inkscape:connector-curvature="0"
         id="path1059"
         style="fill:none;stroke:#0d0d0d;stroke-width:0.79374999;stroke-linecap:butt;stroke-linejoin:miter;stroke-miterlimit:10;stroke-dasharray:none;stroke-opacity:1"
         d="M 148.92866,23.314997 V 152.72658" />
      <g
         transform="matrix(0.35277777,0,0,-0.35277777,-76.559831,173.83116)"
         id="g1061">
        <path
           inkscape:connector-curvature="0"
           id="path1063"
           style="fill:none;stroke:#afabab;stroke-width:2.25;stroke-linecap:butt;stroke-linejoin:miter;stroke-miterlimit:10;stroke-dasharray:9, 6.75;stroke-dashoffset:0;stroke-opacity:1"
           d="M 866.85,229.26 H 186.54" />
      </g>
      <path
         inkscape:connector-curvature="0"
         id="path1065"
         style="fill:none;stroke:#548235;stroke-width:1.05833328;stroke-linecap:butt;stroke-linejoin:miter;stroke-miterlimit:10;stroke-dasharray:none;stroke-opacity:1"
         d="m 110.236,73.691662 c 0.23636,-2.2225 0.47272,-4.448527 1.95086,-7.013222 1.47814,-2.564694 5.55978,-7.221361 6.92503,-8.374944 1.36525,-1.153583 1.31586,0.155222 1.26647,1.4605" />
      <path
         inkscape:connector-curvature="0"
         id="path1067"
         style="fill:none;stroke:#548235;stroke-width:1.05833328;stroke-linecap:butt;stroke-linejoin:miter;stroke-miterlimit:10;stroke-dasharray:none;stroke-opacity:1"
         d="m 110.236,73.479996 c -0.13053,-1.354667 -0.26106,-2.709334 -0.87489,-5.351639 -0.61736,-2.642306 -1.18533,-8.187972 -2.82575,-10.505722 -1.63689,-2.31775 -4.32506,-2.861028 -7.009695,-3.404306" />
      <path
         inkscape:connector-curvature="0"
         id="path1069"
         style="fill:none;stroke:#548235;stroke-width:1.05833328;stroke-linecap:butt;stroke-linejoin:miter;stroke-miterlimit:10;stroke-dasharray:none;stroke-opacity:1"
         d="m 110.236,73.395329 c 0.0811,-1.298222 0.16228,-2.599972 1.26294,-3.704167 1.1042,-1.104194 4.08517,-2.76225 5.34811,-2.924527 1.26295,-0.162278 1.74978,0.892527 2.23661,1.947333" />
      <path
         inkscape:connector-curvature="0"
         id="path1071"
         style="fill:none;stroke:#548235;stroke-width:1.05833328;stroke-linecap:butt;stroke-linejoin:miter;stroke-miterlimit:10;stroke-dasharray:none;stroke-opacity:1"
         d="m 110.15133,73.564662 c -0.0564,-1.827389 -0.11289,-3.65125 -1.07597,-5.041194 -0.95956,-1.389945 -3.59833,-3.347861 -4.68842,-3.298472 -1.09008,0.04939 -1.47461,1.820333 -1.85561,3.58775" />
      <path
         inkscape:connector-curvature="0"
         id="path1073"
         style="fill:none;stroke:#548235;stroke-width:1.05833328;stroke-linecap:butt;stroke-linejoin:miter;stroke-miterlimit:10;stroke-dasharray:none;stroke-opacity:1"
         d="m 110.35241,73.776329 c -0.15522,-1.993195 -0.30691,-3.989917 -0.0988,-6.321778 0.21166,-2.335389 0.4833,-5.090583 1.35819,-7.687027 0.87136,-2.592917 2.37067,-5.235222 3.8735,-7.877528" />
      <path
         inkscape:connector-curvature="0"
         id="path1075"
         style="fill:none;stroke:#548235;stroke-width:1.05833328;stroke-linecap:butt;stroke-linejoin:miter;stroke-miterlimit:10;stroke-dasharray:none;stroke-opacity:1"
         d="m 109.95025,73.987996 c 0.13758,-4.54025 0.27516,-9.084028 0,-12.555361 -0.2787,-3.471334 -0.97014,-5.870222 -1.66159,-8.272639" />
      <path
         inkscape:connector-curvature="0"
         id="path1077"
         style="fill:none;stroke:#c55a11;stroke-width:0.52916664;stroke-linecap:butt;stroke-linejoin:miter;stroke-miterlimit:10;stroke-dasharray:none;stroke-opacity:1"
         d="M 110.15133,73.776329 99.229332,93.334328" />
      <path
         inkscape:connector-curvature="0"
         id="path1079"
         style="fill:none;stroke:#c55a11;stroke-width:0.52916664;stroke-linecap:butt;stroke-linejoin:miter;stroke-miterlimit:10;stroke-dasharray:none;stroke-opacity:1"
         d="M 110.32066,73.860996 118.618,93.545995" />
      <path
         inkscape:connector-curvature="0"
         id="path1081"
         style="fill:none;stroke:#c55a11;stroke-width:0.52916664;stroke-linecap:butt;stroke-linejoin:miter;stroke-miterlimit:10;stroke-dasharray:none;stroke-opacity:1"
         d="m 110.236,74.072662 -1.05834,19.346333" />
      <path
         inkscape:connector-curvature="0"
         id="path1083"
         style="fill:none;stroke:#c55a11;stroke-width:0.52916664;stroke-linecap:butt;stroke-linejoin:miter;stroke-miterlimit:10;stroke-dasharray:none;stroke-opacity:1"
         d="m 105.918,81.226995 -5.54567,2.54" />
      <path
         inkscape:connector-curvature="0"
         id="path1085"
         style="fill:none;stroke:#c55a11;stroke-width:0.52916664;stroke-linecap:butt;stroke-linejoin:miter;stroke-miterlimit:10;stroke-dasharray:none;stroke-opacity:1"
         d="m 102.616,87.153662 1.143,4.529666" />
      <path
         inkscape:connector-curvature="0"
         id="path1087"
         style="fill:none;stroke:#c55a11;stroke-width:0.52916664;stroke-linecap:butt;stroke-linejoin:miter;stroke-miterlimit:10;stroke-dasharray:none;stroke-opacity:1"
         d="m 109.51633,84.528995 -2.70933,2.54" />
      <path
         inkscape:connector-curvature="0"
         id="path1089"
         style="fill:none;stroke:#c55a11;stroke-width:0.52916664;stroke-linecap:butt;stroke-linejoin:miter;stroke-miterlimit:10;stroke-dasharray:none;stroke-opacity:1"
         d="m 112.86066,79.618329 3.302,1.862666" />
      <path
         inkscape:connector-curvature="0"
         id="path1091"
         style="fill:none;stroke:#c55a11;stroke-width:0.52916664;stroke-linecap:butt;stroke-linejoin:miter;stroke-miterlimit:10;stroke-dasharray:none;stroke-opacity:1"
         d="m 115.57,86.560995 -1.31234,3.725334" />
      <path
         inkscape:connector-curvature="0"
         id="path1093"
         style="fill:none;stroke:#c55a11;stroke-width:0.52916664;stroke-linecap:butt;stroke-linejoin:miter;stroke-miterlimit:10;stroke-dasharray:none;stroke-opacity:1"
         d="m 109.38933,90.074662 2.49767,2.497666" />
      <g
         transform="matrix(0.35277777,0,0,-0.35277777,-76.559831,173.83116)"
         id="g1095">
        <g
           clip-path="url(#clipPath1101)"
           id="g1097">
          <text
             id="text1105"
             style="font-variant:normal;font-weight:normal;font-size:15.96000004px;font-family:Arial;-inkscape-font-specification:ArialMT;writing-mode:lr-tb;fill:#000000;fill-opacity:1;fill-rule:nonzero;stroke:none"
             transform="matrix(1,0,0,-1,369.72,387.12)">
            <tspan
               id="tspan1103"
               sodipodi:role="line"
               y="0"
               x="0 10.64532 15.96 24.833759 32.861641 36.452641 45.326401 48.9174 53.354279 62.228039 66.664917 70.25592 79.129677">Precipitation</tspan>
          </text>
        </g>
      </g>
      <path
         inkscape:connector-curvature="0"
         id="path1107"
         style="fill:#4472c4;fill-opacity:1;fill-rule:evenodd;stroke:none;stroke-width:0.35277778"
         d="M 67.698055,29.386302 H 71.36906 V 28.211411 H 67.698055 Z" />
      <path
         inkscape:connector-curvature="0"
         id="path1109"
         style="fill:none;stroke:#2f528f;stroke-width:0.35277778;stroke-linecap:butt;stroke-linejoin:miter;stroke-miterlimit:10;stroke-dasharray:none;stroke-opacity:1"
         d="M 67.698055,29.386302 H 71.36906 V 28.211411 H 67.698055 Z" />
      <path
         inkscape:connector-curvature="0"
         id="path1111"
         style="fill:#ff0000;fill-opacity:1;fill-rule:nonzero;stroke:none;stroke-width:0.35277778"
         d="m 86.906804,34.681496 2.123722,0.15875 2.102556,0.179917 1.040694,0.105833 1.026584,0.119945 1.012472,0.141111 0.994833,0.155222 0.973667,0.183445 0.948972,0.208138 0.92075,0.239889 0.896056,0.271639 0.864305,0.310445 0.829025,0.34925 0.79023,0.395111 0.75141,0.437444 0.70203,0.490361 0.65969,0.532695 0.61384,0.575028 0.57855,0.610305 0.5327,0.642056 0.50447,0.677333 0.47272,0.6985 0.44097,0.726722 0.41628,0.744361 0.39511,0.762 0.37747,0.779639 0.35984,0.79375 0.32808,0.776111 -0.97719,0.409222 -0.32103,-0.769055 0.004,0.01411 -0.35278,-0.779639 0.004,0.01411 -0.37042,-0.769055 0.004,0.01058 -0.38453,-0.747889 0.007,0.01411 -0.4057,-0.73025 0.007,0.01764 -0.43039,-0.705555 0.0141,0.02117 -0.45861,-0.680861 0.0141,0.02117 -0.48683,-0.652639 0.0176,0.02117 -0.51506,-0.617362 0.0212,0.02117 -0.55386,-0.585611 0.0247,0.02117 -0.58914,-0.550334 0.0318,0.02822 -0.63147,-0.508 0.0318,0.02117 -0.67028,-0.465666 0.0318,0.02117 -0.71614,-0.419805 0.0318,0.01764 -0.75847,-0.377473 0.0318,0.01411 -0.804334,-0.335139 0.0247,0.0071 -0.836084,-0.299861 0.02822,0.0071 -0.874889,-0.264584 0.02117,0.0071 -0.903111,-0.236361 0.02117,0.0071 -0.931333,-0.204611 0.01411,0.0035 -0.956028,-0.179917 h 0.01411 l -0.980722,-0.155222 0.01058,0.0035 -1.001889,-0.137583 h 0.01058 l -1.016,-0.119945 h 0.0071 l -1.037166,-0.105833 0.01058,0.0035 -2.0955,-0.179917 h 0.0071 L 86.829193,35.73983 Z m 22.429606,11.168945 -0.24341,3.541888 -2.68817,-2.321277 z" />
      <g
         transform="matrix(0.35277777,0,0,-0.35277777,-76.559831,173.83116)"
         id="g1113">
        <g
           clip-path="url(#clipPath1119)"
           id="g1115">
          <text
             id="text1123"
             style="font-variant:normal;font-weight:normal;font-size:15.96000004px;font-family:Arial;-inkscape-font-specification:ArialMT;writing-mode:lr-tb;fill:#000000;fill-opacity:1;fill-rule:nonzero;stroke:none"
             transform="matrix(1,0,0,-1,563.02,292.66)">
            <tspan
               id="tspan1121"
               sodipodi:role="line"
               y="0"
               x="0 10.64532 14.26824 23.142 36.43668 45.31044 53.370239">Biomass</tspan>
          </text>
        </g>
      </g>
      <path
         inkscape:connector-curvature="0"
         id="path1125"
         style="fill:#4472c4;fill-opacity:1;fill-rule:evenodd;stroke:none;stroke-width:0.35277778"
         d="m 131.28272,63.235329 h 3.67101 V 62.05049 h -3.67101 z" />
      <path
         inkscape:connector-curvature="0"
         id="path1127"
         style="fill:none;stroke:#2f528f;stroke-width:0.35277778;stroke-linecap:butt;stroke-linejoin:miter;stroke-miterlimit:10;stroke-dasharray:none;stroke-opacity:1"
         d="m 131.28272,63.235329 h 3.67101 V 62.05049 h -3.67101 z" />
      <g
         transform="matrix(0.35277777,0,0,-0.35277777,-76.559831,173.83116)"
         id="g1129">
        <g
           clip-path="url(#clipPath1135)"
           id="g1131">
          <text
             id="text1139"
             style="font-variant:normal;font-weight:normal;font-size:15.98400021px;font-family:Arial;-inkscape-font-specification:ArialMT;writing-mode:lr-tb;fill:#000000;fill-opacity:1;fill-rule:nonzero;stroke:none"
             transform="matrix(1,0,0,-1,566.02,243.38)">
            <tspan
               id="tspan1137"
               sodipodi:role="line"
               y="0"
               x="0 8.0239677 16.911072 20.45952 24.087889 28.291679 39.688271 48.575375 53.018929 61.906033">soil water</tspan>
          </text>
        </g>
      </g>
      <path
         inkscape:connector-curvature="0"
         id="path1141"
         style="fill:#4472c4;fill-opacity:1;fill-rule:evenodd;stroke:none;stroke-width:0.35277778"
         d="m 133.78039,80.567301 h 3.671 V 79.39241 h -3.671 z" />
      <path
         inkscape:connector-curvature="0"
         id="path1143"
         style="fill:none;stroke:#2f528f;stroke-width:0.35277778;stroke-linecap:butt;stroke-linejoin:miter;stroke-miterlimit:10;stroke-dasharray:none;stroke-opacity:1"
         d="m 133.78039,80.567301 h 3.671 V 79.39241 h -3.671 z" />
      <g
         transform="matrix(0.35277777,0,0,-0.35277777,-76.559831,173.83116)"
         id="g1145">
        <g
           clip-path="url(#clipPath1151)"
           id="g1147">
          <path
             inkscape:connector-curvature="0"
             id="path1153"
             style="fill:#ff0000;fill-opacity:1;fill-rule:nonzero;stroke:none"
             d="m 539.49,278.84 2.89,-0.5 2.85,-0.54 2.83,-0.58 2.75,-0.66 2.66,-0.76 2.52,-0.89 1.23,-0.52 1.17,-0.55 1.13,-0.6 1.08,-0.65 1.03,-0.71 0.96,-0.76 0.91,-0.79 0.87,-0.85 1.55,-1.76 1.43,-1.91 0.82,-1.43 -2.61,-1.49 -0.77,1.35 0.1,-0.15 -1.33,1.79 0.07,-0.1 -1.47,1.67 0.07,-0.08 -0.8,0.78 0.06,-0.05 -0.85,0.74 0.06,-0.05 -0.89,0.71 0.08,-0.06 -0.95,0.65 0.07,-0.05 -1.01,0.61 0.08,-0.04 -1.07,0.56 0.06,-0.03 -1.11,0.53 0.06,-0.03 -1.15,0.49 0.08,-0.03 -2.44,0.86 0.09,-0.03 -2.58,0.73 0.05,-0.01 -2.69,0.65 0.05,-0.01 -2.79,0.57 h 0.03 l -2.84,0.53 0.02,-0.01 -2.87,0.51 z m 30.54,-11.67 0.55,-10.05 -8.37,5.6 z" />
        </g>
      </g>
      <g
         transform="matrix(0.35277777,0,0,-0.35277777,-76.559831,173.83116)"
         id="g1155">
        <g
           clip-path="url(#clipPath1161)"
           id="g1157">
          <path
             inkscape:connector-curvature="0"
             id="path1163"
             style="fill:#00b050;fill-opacity:1;fill-rule:evenodd;stroke:none"
             d="m 391.05,311.19 c 0.24,2.45 2.34,4.28 4.68,4.07 0.95,-0.08 1.84,-0.5 2.52,-1.17 1.24,1.48 3.36,1.65 4.75,0.39 0.24,-0.22 0.45,-0.48 0.62,-0.77 0.99,1.24 2.72,1.43 3.88,0.43 0.32,-0.28 0.58,-0.63 0.74,-1.03 1.37,1.07 3.29,0.79 4.28,-0.62 0.42,-0.59 0.62,-1.32 0.58,-2.06 1.62,-0.91 2.21,-3.04 1.3,-4.76 -0.07,-0.15 -0.16,-0.29 -0.25,-0.42 0.95,-2.24 -0.03,-4.9 -2.19,-5.95 -0.68,-0.32 -1.41,-0.46 -2.15,-0.4 -0.49,-2.06 -2.48,-3.34 -4.43,-2.86 -0.65,0.16 -1.25,0.5 -1.72,0.99 -1.2,-2.15 -3.81,-2.91 -5.83,-1.7 -0.85,0.5 -1.5,1.31 -1.83,2.27 -2.57,-0.9 -5.3,0.55 -6.09,3.22 -0.01,0.04 -0.02,0.07 -0.03,0.11 -1.51,0.16 -2.58,1.57 -2.39,3.15 0.1,0.84 0.55,1.6 1.22,2.07 -1.08,1.09 -1.1,2.91 -0.05,4.08 0.61,0.67 1.48,1.01 2.35,0.9 z" />
        </g>
      </g>
      <g
         transform="matrix(0.35277777,0,0,-0.35277777,-76.559831,173.83116)"
         id="g1165">
        <g
           clip-path="url(#clipPath1171)"
           id="g1167">
          <path
             inkscape:connector-curvature="0"
             id="path1173"
             style="fill:none;stroke:#00b050;stroke-width:1.5;stroke-linecap:butt;stroke-linejoin:miter;stroke-miterlimit:10;stroke-dasharray:none;stroke-opacity:1"
             d="m 391.05,311.19 c 0.24,2.45 2.34,4.28 4.68,4.07 0.95,-0.08 1.84,-0.5 2.52,-1.17 1.24,1.48 3.36,1.65 4.75,0.39 0.24,-0.22 0.45,-0.48 0.62,-0.77 0.99,1.24 2.72,1.43 3.88,0.43 0.32,-0.28 0.58,-0.63 0.74,-1.03 1.37,1.07 3.29,0.79 4.28,-0.62 0.42,-0.59 0.62,-1.32 0.58,-2.06 1.62,-0.91 2.21,-3.04 1.3,-4.76 -0.07,-0.15 -0.16,-0.29 -0.25,-0.42 0.95,-2.24 -0.03,-4.9 -2.19,-5.95 -0.68,-0.32 -1.41,-0.46 -2.15,-0.4 -0.49,-2.06 -2.48,-3.34 -4.43,-2.86 -0.65,0.16 -1.25,0.5 -1.72,0.99 -1.2,-2.15 -3.81,-2.91 -5.83,-1.7 -0.85,0.5 -1.5,1.31 -1.83,2.27 -2.57,-0.9 -5.3,0.55 -6.09,3.22 -0.01,0.04 -0.02,0.07 -0.03,0.11 -1.51,0.16 -2.58,1.57 -2.39,3.15 0.1,0.84 0.55,1.6 1.22,2.07 -1.08,1.09 -1.1,2.91 -0.05,4.08 0.61,0.67 1.48,1.01 2.35,0.9 z" />
        </g>
      </g>
      <g
         transform="matrix(0.35277777,0,0,-0.35277777,-76.559831,173.83116)"
         id="g1175">
        <g
           clip-path="url(#clipPath1181)"
           id="g1177">
          <path
             inkscape:connector-curvature="0"
             id="path1183"
             style="fill:none;stroke:#00b050;stroke-width:1.5;stroke-linecap:butt;stroke-linejoin:miter;stroke-miterlimit:10;stroke-dasharray:none;stroke-opacity:1"
             d="m 390.22,305.49 c -0.55,0.08 -1.06,0.34 -1.46,0.74 m 1.87,-5.19 c -0.24,-0.04 -0.48,-0.05 -0.72,-0.03 m 6.1,-3.33 c -0.1,0.3 -0.17,0.61 -0.21,0.92 m 8.26,-0.63 c -0.1,-0.3 -0.22,-0.59 -0.38,-0.86 m 4.93,5.69 c 1.08,-0.92 1.55,-2.41 1.2,-3.84 m 4.34,6.34 c -0.31,-0.44 -0.72,-0.8 -1.18,-1.06 m 0.15,6.26 c -0.01,-0.21 -0.04,-0.41 -0.09,-0.61 m -5.41,2.63 c 0.18,0.25 0.39,0.47 0.63,0.66 m -4.96,-0.03 c 0.1,0.22 0.22,0.42 0.37,0.61 m -5.41,0.33 c 0.24,-0.24 0.46,-0.52 0.64,-0.82 m -7.86,-2.78 c -0.01,0.23 -0.01,0.47 0.02,0.7" />
        </g>
      </g>
      <path
         inkscape:connector-curvature="0"
         id="path1185"
         style="fill:none;stroke:#00b050;stroke-width:0.52916664;stroke-linecap:butt;stroke-linejoin:miter;stroke-miterlimit:10;stroke-dasharray:none;stroke-opacity:1"
         d="m 69.511332,72.844996 c 0,-2.321278 0,-4.646084 0.462139,-6.822723 0.462139,-2.180166 1.252361,-4.434416 2.310695,-6.247694 1.058333,-1.80975 2.550583,-3.217333 4.042833,-4.624916" />
      <path
         inkscape:connector-curvature="0"
         id="path1187"
         style="fill:none;stroke:#00b050;stroke-width:0.52916664;stroke-linecap:butt;stroke-linejoin:miter;stroke-miterlimit:10;stroke-dasharray:none;stroke-opacity:1"
         d="M 69.638332,66.494996 C 69.627749,65.327301 69.620694,64.159607 69.29261,62.790829 68.964527,61.422051 68.481221,59.880413 67.67336,58.278801 66.861971,56.67719 65.397944,54.091329 64.43486,53.18469 63.471777,52.278052 62.681555,52.560274 61.891333,52.838968" />
      <g
         transform="matrix(0.35277777,0,0,-0.35277777,-76.559831,173.83116)"
         id="g1189">
        <g
           clip-path="url(#clipPath1195)"
           id="g1191">
          <path
             inkscape:connector-curvature="0"
             id="path1197"
             style="fill:#00b050;fill-opacity:1;fill-rule:evenodd;stroke:none"
             d="m 424.11,322.24 c 0.8,2.34 3.25,3.64 5.48,2.92 0.91,-0.3 1.68,-0.9 2.19,-1.72 1.54,1.17 3.65,0.86 4.72,-0.68 0.19,-0.27 0.33,-0.57 0.43,-0.88 1.24,0.98 2.98,0.78 3.88,-0.46 0.25,-0.34 0.42,-0.74 0.49,-1.17 1.58,0.73 3.38,0.03 4.03,-1.56 0.28,-0.67 0.31,-1.43 0.1,-2.14 1.38,-1.25 1.47,-3.46 0.2,-4.94 -0.1,-0.12 -0.22,-0.24 -0.34,-0.35 0.42,-2.39 -1.13,-4.77 -3.47,-5.3 -0.73,-0.16 -1.48,-0.13 -2.18,0.09 -0.95,-1.89 -3.17,-2.69 -4.96,-1.79 -0.61,0.3 -1.11,0.77 -1.45,1.35 -1.66,-1.82 -4.37,-1.98 -6.07,-0.35 -0.72,0.68 -1.17,1.61 -1.28,2.63 -2.7,-0.3 -5.04,1.72 -5.21,4.51 0,0.03 0,0.07 0,0.1 -1.43,0.5 -2.16,2.11 -1.62,3.61 0.28,0.79 0.89,1.43 1.66,1.75 -0.81,1.3 -0.43,3.08 0.86,3.98 0.75,0.52 1.67,0.65 2.49,0.35 z" />
        </g>
      </g>
      <g
         transform="matrix(0.35277777,0,0,-0.35277777,-76.559831,173.83116)"
         id="g1199">
        <g
           clip-path="url(#clipPath1205)"
           id="g1201">
          <path
             inkscape:connector-curvature="0"
             id="path1207"
             style="fill:none;stroke:#00b050;stroke-width:1.5;stroke-linecap:butt;stroke-linejoin:miter;stroke-miterlimit:10;stroke-dasharray:none;stroke-opacity:1"
             d="m 424.11,322.24 c 0.8,2.34 3.25,3.64 5.48,2.92 0.91,-0.3 1.68,-0.9 2.19,-1.72 1.54,1.17 3.65,0.86 4.72,-0.68 0.19,-0.27 0.33,-0.57 0.43,-0.88 1.24,0.98 2.98,0.78 3.88,-0.46 0.25,-0.34 0.42,-0.74 0.49,-1.17 1.58,0.73 3.38,0.03 4.03,-1.56 0.28,-0.67 0.31,-1.43 0.1,-2.14 1.38,-1.25 1.47,-3.46 0.2,-4.94 -0.1,-0.12 -0.22,-0.24 -0.34,-0.35 0.42,-2.39 -1.13,-4.77 -3.47,-5.3 -0.73,-0.16 -1.48,-0.13 -2.18,0.09 -0.95,-1.89 -3.17,-2.69 -4.96,-1.79 -0.61,0.3 -1.11,0.77 -1.45,1.35 -1.66,-1.82 -4.37,-1.98 -6.07,-0.35 -0.72,0.68 -1.17,1.61 -1.28,2.63 -2.7,-0.3 -5.04,1.72 -5.21,4.51 0,0.03 0,0.07 0,0.1 -1.43,0.5 -2.16,2.11 -1.62,3.61 0.28,0.79 0.89,1.43 1.66,1.75 -0.81,1.3 -0.43,3.08 0.86,3.98 0.75,0.52 1.67,0.65 2.49,0.35 z" />
        </g>
      </g>
      <g
         transform="matrix(0.35277777,0,0,-0.35277777,-76.559831,173.83116)"
         id="g1209">
        <g
           clip-path="url(#clipPath1215)"
           id="g1211">
          <path
             inkscape:connector-curvature="0"
             id="path1217"
             style="fill:none;stroke:#00b050;stroke-width:1.5;stroke-linecap:butt;stroke-linejoin:miter;stroke-miterlimit:10;stroke-dasharray:none;stroke-opacity:1"
             d="m 422.03,316.87 c -0.52,0.2 -0.96,0.57 -1.26,1.05 m 0.65,-5.48 c -0.24,0.02 -0.48,0.06 -0.7,0.14 m 5.2,-4.61 c -0.03,0.31 -0.04,0.62 0,0.94 m 7.9,-2.47 c -0.16,-0.27 -0.35,-0.53 -0.56,-0.76 m 6.08,4.44 c 0.85,-1.14 0.97,-2.7 0.31,-4.02 m 5.65,5.21 c -0.4,-0.36 -0.88,-0.62 -1.39,-0.76 m 1.56,6.06 c -0.06,-0.2 -0.14,-0.39 -0.23,-0.57 m -4.68,3.77 c 0.23,0.21 0.49,0.37 0.77,0.5 m -4.85,1.09 c 0.15,0.19 0.31,0.36 0.5,0.51 m -5.2,1.54 c 0.19,-0.29 0.34,-0.61 0.45,-0.95 m -8.29,-0.94 c 0.04,0.23 0.1,0.46 0.17,0.68" />
        </g>
      </g>
      <g
         transform="matrix(0.35277777,0,0,-0.35277777,-76.559831,173.83116)"
         id="g1219">
        <g
           clip-path="url(#clipPath1225)"
           id="g1221">
          <path
             inkscape:connector-curvature="0"
             id="path1227"
             style="fill:#00b050;fill-opacity:1;fill-rule:evenodd;stroke:none"
             d="m 424.11,348.44 c 0.8,2.33 3.25,3.64 5.48,2.91 0.91,-0.29 1.68,-0.9 2.19,-1.71 1.54,1.16 3.65,0.86 4.72,-0.69 0.19,-0.27 0.33,-0.56 0.43,-0.88 1.24,0.98 2.98,0.78 3.88,-0.46 0.25,-0.34 0.42,-0.74 0.49,-1.17 1.58,0.73 3.38,0.03 4.03,-1.56 0.28,-0.67 0.31,-1.43 0.1,-2.14 1.38,-1.25 1.47,-3.46 0.2,-4.94 -0.1,-0.12 -0.22,-0.24 -0.34,-0.35 0.42,-2.39 -1.13,-4.76 -3.47,-5.29 -0.73,-0.17 -1.48,-0.14 -2.18,0.08 -0.95,-1.89 -3.17,-2.69 -4.96,-1.79 -0.61,0.3 -1.11,0.77 -1.45,1.36 -1.66,-1.83 -4.37,-1.99 -6.07,-0.36 -0.72,0.69 -1.17,1.62 -1.28,2.63 -2.7,-0.3 -5.04,1.72 -5.21,4.51 0,0.04 0,0.07 0,0.11 -1.43,0.49 -2.16,2.11 -1.62,3.6 0.28,0.8 0.89,1.44 1.66,1.75 -0.81,1.3 -0.43,3.08 0.86,3.98 0.75,0.52 1.67,0.65 2.49,0.36 z" />
        </g>
      </g>
      <g
         transform="matrix(0.35277777,0,0,-0.35277777,-76.559831,173.83116)"
         id="g1229">
        <g
           clip-path="url(#clipPath1235)"
           id="g1231">
          <path
             inkscape:connector-curvature="0"
             id="path1237"
             style="fill:none;stroke:#00b050;stroke-width:1.5;stroke-linecap:butt;stroke-linejoin:miter;stroke-miterlimit:10;stroke-dasharray:none;stroke-opacity:1"
             d="m 424.11,348.44 c 0.8,2.33 3.25,3.64 5.48,2.91 0.91,-0.29 1.68,-0.9 2.19,-1.71 1.54,1.16 3.65,0.86 4.72,-0.69 0.19,-0.27 0.33,-0.56 0.43,-0.88 1.24,0.98 2.98,0.78 3.88,-0.46 0.25,-0.34 0.42,-0.74 0.49,-1.17 1.58,0.73 3.38,0.03 4.03,-1.56 0.28,-0.67 0.31,-1.43 0.1,-2.14 1.38,-1.25 1.47,-3.46 0.2,-4.94 -0.1,-0.12 -0.22,-0.24 -0.34,-0.35 0.42,-2.39 -1.13,-4.76 -3.47,-5.29 -0.73,-0.17 -1.48,-0.14 -2.18,0.08 -0.95,-1.89 -3.17,-2.69 -4.96,-1.79 -0.61,0.3 -1.11,0.77 -1.45,1.36 -1.66,-1.83 -4.37,-1.99 -6.07,-0.36 -0.72,0.69 -1.17,1.62 -1.28,2.63 -2.7,-0.3 -5.04,1.72 -5.21,4.51 0,0.04 0,0.07 0,0.11 -1.43,0.49 -2.16,2.11 -1.62,3.6 0.28,0.8 0.89,1.44 1.66,1.75 -0.81,1.3 -0.43,3.08 0.86,3.98 0.75,0.52 1.67,0.65 2.49,0.36 z" />
        </g>
      </g>
      <g
         transform="matrix(0.35277777,0,0,-0.35277777,-76.559831,173.83116)"
         id="g1239">
        <g
           clip-path="url(#clipPath1245)"
           id="g1241">
          <path
             inkscape:connector-curvature="0"
             id="path1247"
             style="fill:none;stroke:#00b050;stroke-width:1.5;stroke-linecap:butt;stroke-linejoin:miter;stroke-miterlimit:10;stroke-dasharray:none;stroke-opacity:1"
             d="m 422.03,343.06 c -0.52,0.21 -0.96,0.57 -1.26,1.05 m 0.65,-5.48 c -0.24,0.02 -0.48,0.07 -0.7,0.14 m 5.2,-4.61 c -0.03,0.31 -0.04,0.63 0,0.94 m 7.9,-2.47 c -0.16,-0.27 -0.35,-0.52 -0.56,-0.76 m 6.08,4.44 c 0.85,-1.13 0.97,-2.69 0.31,-4.01 m 5.65,5.21 c -0.4,-0.36 -0.88,-0.63 -1.39,-0.77 m 1.56,6.06 c -0.06,-0.19 -0.14,-0.39 -0.23,-0.57 m -4.68,3.78 c 0.23,0.2 0.49,0.37 0.77,0.5 m -4.85,1.09 c 0.15,0.18 0.31,0.35 0.5,0.5 m -5.2,1.54 c 0.19,-0.29 0.34,-0.61 0.45,-0.94 m -8.29,-0.95 c 0.04,0.23 0.1,0.46 0.17,0.69" />
        </g>
      </g>
      <g
         transform="matrix(0.35277777,0,0,-0.35277777,-76.559831,173.83116)"
         id="g1249">
        <g
           clip-path="url(#clipPath1255)"
           id="g1251">
          <path
             inkscape:connector-curvature="0"
             id="path1257"
             style="fill:#00b050;fill-opacity:1;fill-rule:evenodd;stroke:none"
             d="m 378.82,353.45 c 0.79,2.34 3.25,3.64 5.48,2.92 0.9,-0.3 1.67,-0.9 2.19,-1.71 1.54,1.16 3.65,0.85 4.71,-0.69 0.19,-0.27 0.34,-0.57 0.44,-0.88 1.24,0.98 2.97,0.78 3.88,-0.46 0.25,-0.34 0.41,-0.74 0.49,-1.17 1.57,0.73 3.38,0.03 4.03,-1.56 0.27,-0.67 0.31,-1.43 0.1,-2.14 1.38,-1.25 1.47,-3.46 0.2,-4.94 -0.11,-0.12 -0.22,-0.24 -0.34,-0.35 0.42,-2.39 -1.14,-4.77 -3.48,-5.3 -0.73,-0.16 -1.48,-0.13 -2.17,0.09 -0.95,-1.89 -3.17,-2.69 -4.97,-1.79 -0.6,0.3 -1.1,0.77 -1.45,1.35 -1.65,-1.82 -4.37,-1.98 -6.07,-0.35 -0.71,0.69 -1.16,1.61 -1.27,2.63 -2.71,-0.3 -5.04,1.72 -5.21,4.51 0,0.03 0,0.07 -0.01,0.1 -1.43,0.5 -2.15,2.11 -1.62,3.61 0.29,0.8 0.9,1.44 1.66,1.75 -0.81,1.3 -0.42,3.08 0.87,3.98 0.75,0.52 1.67,0.65 2.49,0.35 z" />
        </g>
      </g>
      <g
         transform="matrix(0.35277777,0,0,-0.35277777,-76.559831,173.83116)"
         id="g1259">
        <g
           clip-path="url(#clipPath1265)"
           id="g1261">
          <path
             inkscape:connector-curvature="0"
             id="path1267"
             style="fill:none;stroke:#00b050;stroke-width:1.5;stroke-linecap:butt;stroke-linejoin:miter;stroke-miterlimit:10;stroke-dasharray:none;stroke-opacity:1"
             d="m 378.82,353.45 c 0.79,2.34 3.25,3.64 5.48,2.92 0.9,-0.3 1.67,-0.9 2.19,-1.71 1.54,1.16 3.65,0.85 4.71,-0.69 0.19,-0.27 0.34,-0.57 0.44,-0.88 1.24,0.98 2.97,0.78 3.88,-0.46 0.25,-0.34 0.41,-0.74 0.49,-1.17 1.57,0.73 3.38,0.03 4.03,-1.56 0.27,-0.67 0.31,-1.43 0.1,-2.14 1.38,-1.25 1.47,-3.46 0.2,-4.94 -0.11,-0.12 -0.22,-0.24 -0.34,-0.35 0.42,-2.39 -1.14,-4.77 -3.48,-5.3 -0.73,-0.16 -1.48,-0.13 -2.17,0.09 -0.95,-1.89 -3.17,-2.69 -4.97,-1.79 -0.6,0.3 -1.1,0.77 -1.45,1.35 -1.65,-1.82 -4.37,-1.98 -6.07,-0.35 -0.71,0.69 -1.16,1.61 -1.27,2.63 -2.71,-0.3 -5.04,1.72 -5.21,4.51 0,0.03 0,0.07 -0.01,0.1 -1.43,0.5 -2.15,2.11 -1.62,3.61 0.29,0.8 0.9,1.44 1.66,1.75 -0.81,1.3 -0.42,3.08 0.87,3.98 0.75,0.52 1.67,0.65 2.49,0.35 z" />
        </g>
      </g>
      <g
         transform="matrix(0.35277777,0,0,-0.35277777,-76.559831,173.83116)"
         id="g1269">
        <g
           clip-path="url(#clipPath1275)"
           id="g1271">
          <path
             inkscape:connector-curvature="0"
             id="path1277"
             style="fill:none;stroke:#00b050;stroke-width:1.5;stroke-linecap:butt;stroke-linejoin:miter;stroke-miterlimit:10;stroke-dasharray:none;stroke-opacity:1"
             d="m 376.74,348.08 c -0.52,0.2 -0.96,0.57 -1.26,1.05 m 0.65,-5.48 c -0.24,0.02 -0.48,0.06 -0.71,0.14 m 5.2,-4.61 c -0.03,0.31 -0.03,0.62 0,0.94 m 7.91,-2.47 c -0.16,-0.27 -0.35,-0.53 -0.56,-0.76 m 6.08,4.44 c 0.85,-1.14 0.97,-2.7 0.31,-4.02 m 5.65,5.21 c -0.41,-0.36 -0.88,-0.62 -1.39,-0.76 m 1.55,6.06 c -0.06,-0.2 -0.13,-0.39 -0.23,-0.57 m -4.67,3.78 c 0.23,0.2 0.49,0.37 0.76,0.49 m -4.84,1.09 c 0.14,0.19 0.31,0.36 0.5,0.51 m -5.2,1.54 c 0.18,-0.29 0.33,-0.61 0.44,-0.95 m -8.29,-0.94 c 0.04,0.23 0.1,0.46 0.18,0.68" />
        </g>
      </g>
      <g
         transform="matrix(0.35277777,0,0,-0.35277777,-76.559831,173.83116)"
         id="g1279">
        <g
           clip-path="url(#clipPath1285)"
           id="g1281">
          <path
             inkscape:connector-curvature="0"
             id="path1287"
             style="fill:#00b050;fill-opacity:1;fill-rule:evenodd;stroke:none"
             d="m 397.97,333.3 c 0.39,2.44 2.58,4.15 4.9,3.81 0.95,-0.13 1.81,-0.59 2.46,-1.31 1.31,1.41 3.44,1.48 4.76,0.14 0.23,-0.24 0.42,-0.5 0.58,-0.8 1.05,1.18 2.79,1.28 3.9,0.21 0.3,-0.29 0.54,-0.66 0.68,-1.06 1.43,0.99 3.33,0.61 4.24,-0.85 0.38,-0.62 0.55,-1.35 0.46,-2.09 1.58,-1 2.04,-3.16 1.05,-4.83 -0.08,-0.14 -0.18,-0.28 -0.28,-0.4 0.83,-2.29 -0.3,-4.89 -2.51,-5.82 -0.69,-0.29 -1.43,-0.39 -2.16,-0.29 -0.61,-2.02 -2.66,-3.19 -4.58,-2.62 -0.65,0.2 -1.22,0.57 -1.66,1.09 -1.32,-2.08 -3.97,-2.7 -5.92,-1.38 -0.82,0.55 -1.43,1.39 -1.71,2.37 -2.61,-0.76 -5.26,0.83 -5.9,3.54 -0.01,0.04 -0.02,0.07 -0.03,0.11 -1.49,0.24 -2.49,1.71 -2.21,3.27 0.14,0.84 0.63,1.57 1.33,2.01 -1.02,1.14 -0.94,2.96 0.17,4.07 0.65,0.64 1.54,0.93 2.39,0.78 z" />
        </g>
      </g>
      <g
         transform="matrix(0.35277777,0,0,-0.35277777,-76.559831,173.83116)"
         id="g1289">
        <g
           clip-path="url(#clipPath1295)"
           id="g1291">
          <path
             inkscape:connector-curvature="0"
             id="path1297"
             style="fill:none;stroke:#00b050;stroke-width:1.5;stroke-linecap:butt;stroke-linejoin:miter;stroke-miterlimit:10;stroke-dasharray:none;stroke-opacity:1"
             d="m 397.97,333.3 c 0.39,2.44 2.58,4.15 4.9,3.81 0.95,-0.13 1.81,-0.59 2.46,-1.31 1.31,1.41 3.44,1.48 4.76,0.14 0.23,-0.24 0.42,-0.5 0.58,-0.8 1.05,1.18 2.79,1.28 3.9,0.21 0.3,-0.29 0.54,-0.66 0.68,-1.06 1.43,0.99 3.33,0.61 4.24,-0.85 0.38,-0.62 0.55,-1.35 0.46,-2.09 1.58,-1 2.04,-3.16 1.05,-4.83 -0.08,-0.14 -0.18,-0.28 -0.28,-0.4 0.83,-2.29 -0.3,-4.89 -2.51,-5.82 -0.69,-0.29 -1.43,-0.39 -2.16,-0.29 -0.61,-2.02 -2.66,-3.19 -4.58,-2.62 -0.65,0.2 -1.22,0.57 -1.66,1.09 -1.32,-2.08 -3.97,-2.7 -5.92,-1.38 -0.82,0.55 -1.43,1.39 -1.71,2.37 -2.61,-0.76 -5.26,0.83 -5.9,3.54 -0.01,0.04 -0.02,0.07 -0.03,0.11 -1.49,0.24 -2.49,1.71 -2.21,3.27 0.14,0.84 0.63,1.57 1.33,2.01 -1.02,1.14 -0.94,2.96 0.17,4.07 0.65,0.64 1.54,0.93 2.39,0.78 z" />
        </g>
      </g>
      <g
         transform="matrix(0.35277777,0,0,-0.35277777,-76.559831,173.83116)"
         id="g1299">
        <g
           clip-path="url(#clipPath1305)"
           id="g1301">
          <path
             inkscape:connector-curvature="0"
             id="path1307"
             style="fill:none;stroke:#00b050;stroke-width:1.5;stroke-linecap:butt;stroke-linejoin:miter;stroke-miterlimit:10;stroke-dasharray:none;stroke-opacity:1"
             d="m 396.85,327.65 c -0.55,0.11 -1.05,0.4 -1.43,0.82 m 1.59,-5.28 c -0.24,-0.03 -0.49,-0.03 -0.72,0.01 m 5.91,-3.65 c -0.08,0.3 -0.14,0.61 -0.16,0.93 m 8.21,-1.08 c -0.11,-0.3 -0.25,-0.58 -0.42,-0.85 m 5.23,5.42 c 1.03,-0.97 1.41,-2.49 0.99,-3.9 m 4.67,6.1 c -0.33,-0.43 -0.76,-0.77 -1.23,-1 m 0.49,6.25 c -0.02,-0.21 -0.07,-0.41 -0.13,-0.61 m -5.25,2.92 c 0.19,0.24 0.41,0.45 0.66,0.62 m -4.96,0.25 c 0.12,0.21 0.25,0.4 0.41,0.58 m -5.39,0.63 c 0.24,-0.26 0.44,-0.55 0.6,-0.86 m -8,-2.35 c 0,0.24 0.02,0.47 0.05,0.7" />
        </g>
      </g>
      <path
         inkscape:connector-curvature="0"
         id="path1309"
         style="fill:none;stroke:#c55a11;stroke-width:0.52916664;stroke-linecap:butt;stroke-linejoin:miter;stroke-miterlimit:10;stroke-dasharray:none;stroke-opacity:1"
         d="m 72.897999,102.77466 -1.820333,27.94" />
      <path
         inkscape:connector-curvature="0"
         id="path1311"
         style="fill:none;stroke:#c55a11;stroke-width:0.52916664;stroke-linecap:butt;stroke-linejoin:miter;stroke-miterlimit:10;stroke-dasharray:none;stroke-opacity:1"
         d="M 69.384332,72.844996 66.547999,152.43166" />
      <path
         inkscape:connector-curvature="0"
         id="path1313"
         style="fill:none;stroke:#c55a11;stroke-width:0.52916664;stroke-linecap:butt;stroke-linejoin:miter;stroke-miterlimit:10;stroke-dasharray:none;stroke-opacity:1"
         d="m 69.511332,72.548662 7.493,70.696668" />
      <path
         inkscape:connector-curvature="0"
         id="path1315"
         style="fill:none;stroke:#c55a11;stroke-width:0.52916664;stroke-linecap:butt;stroke-linejoin:miter;stroke-miterlimit:10;stroke-dasharray:none;stroke-opacity:1"
         d="M 69.511332,72.548662 59.774666,127.15866" />
      <path
         inkscape:connector-curvature="0"
         id="path1317"
         style="fill:none;stroke:#c55a11;stroke-width:0.52916664;stroke-linecap:butt;stroke-linejoin:miter;stroke-miterlimit:10;stroke-dasharray:none;stroke-opacity:1"
         d="m 62.695666,111.36833 1.989667,27.26266" />
      <path
         inkscape:connector-curvature="0"
         id="path1319"
         style="fill:none;stroke:#c55a11;stroke-width:0.52916664;stroke-linecap:butt;stroke-linejoin:miter;stroke-miterlimit:10;stroke-dasharray:none;stroke-opacity:1"
         d="m 75.141666,125.71933 8.339666,24.003" />
      <path
         inkscape:connector-curvature="0"
         id="path1321"
         style="fill:none;stroke:#c55a11;stroke-width:0.52916664;stroke-linecap:butt;stroke-linejoin:miter;stroke-miterlimit:10;stroke-dasharray:none;stroke-opacity:1"
         d="m 67.013666,86.349329 -2.54,6.773333" />
      <path
         inkscape:connector-curvature="0"
         id="path1323"
         style="fill:none;stroke:#c55a11;stroke-width:0.52916664;stroke-linecap:butt;stroke-linejoin:miter;stroke-miterlimit:10;stroke-dasharray:none;stroke-opacity:1"
         d="m 70.908332,86.941995 7.789334,19.388665" />
      <g
         transform="matrix(0.35277777,0,0,-0.35277777,-76.559831,173.83116)"
         id="g1325">
        <g
           clip-path="url(#clipPath1331)"
           id="g1327">
          <text
             id="text1335"
             style="font-variant:normal;font-weight:normal;font-size:15.96000004px;font-family:Arial;-inkscape-font-specification:ArialMT;writing-mode:lr-tb;fill:#000000;fill-opacity:1;fill-rule:nonzero;stroke:none"
             transform="matrix(1,0,0,-1,323.47,306.12)">
            <tspan
               id="tspan1333"
               sodipodi:role="line"
               y="0"
               x="0 10.64532 14.26824 23.142 36.43668 45.31044 53.370239">Biomass</tspan>
          </text>
        </g>
      </g>
      <path
         inkscape:connector-curvature="0"
         id="path1337"
         style="fill:#4472c4;fill-opacity:1;fill-rule:evenodd;stroke:none;stroke-width:0.35277778"
         d="m 46.489055,57.82019 h 1.245306 v -1.262944 h 1.178277 v 1.262944 h 1.245306 v 1.178278 h -1.245306 v 1.262945 h -1.178277 v -1.262945 h -1.245306 z" />
      <path
         inkscape:connector-curvature="0"
         id="path1339"
         style="fill:none;stroke:#2f528f;stroke-width:0.35277778;stroke-linecap:butt;stroke-linejoin:miter;stroke-miterlimit:10;stroke-dasharray:none;stroke-opacity:1"
         d="m 46.489055,57.82019 h 1.245306 v -1.262944 h 1.178277 v 1.262944 h 1.245306 v 1.178278 h -1.245306 v 1.262945 h -1.178277 v -1.262945 h -1.245306 z" />
      <path
         inkscape:connector-curvature="0"
         id="path1341"
         style="fill:#ff0000;fill-opacity:1;fill-rule:nonzero;stroke:none;stroke-width:0.35277778"
         d="m 68.844582,39.588635 -0.518583,0.575028 0.0035,-0.0071 -0.508,0.582084 0.01058,-0.01411 -0.479778,0.582083 0.01411,-0.01764 -0.440973,0.585611 0.01411,-0.02117 -0.201084,0.296334 0.01058,-0.01411 -0.186973,0.296333 0.01411,-0.02469 -0.169333,0.299861 0.01058,-0.02117 -0.151694,0.299861 0.01411,-0.03175 -0.130528,0.303389 0.01058,-0.02469 -0.109361,0.303388 0.01411,-0.04233 -0.08467,0.310445 0.0071,-0.03881 -0.05997,0.310444 0.0071,-0.04586 -0.03528,0.3175 0.0035,-0.04233 -0.01058,0.3175 v -0.04586 l 0.01411,0.321028 v -0.03175 l 0.03175,0.324555 -0.0035,-0.03528 0.05644,0.324556 -0.0071,-0.02822 0.07408,0.324555 -0.0071,-0.02469 0.09525,0.328083 -0.02117,-0.05997 0.239889,0.575028 -0.977195,0.405694 -0.254,-0.60325 -0.102305,-0.370417 -0.08114,-0.352777 -0.05997,-0.356306 -0.03881,-0.352778 -0.01764,-0.356305 0.01058,-0.356306 0.0388,-0.359833 0.07056,-0.34925 0.09525,-0.34925 0.123472,-0.338667 0.141111,-0.331611 0.165806,-0.328083 0.179916,-0.321028 0.201084,-0.313972 0.211666,-0.313972 0.458611,-0.60325 0.490361,-0.596195 0.515056,-0.589139 0.525639,-0.582083 z m -1.725083,6.088944 -0.186972,3.545417 -2.723444,-2.275417 z" />
      <g
         transform="matrix(0.35277777,0,0,-0.35277777,-76.559831,173.83116)"
         id="g1343">
        <g
           clip-path="url(#clipPath1349)"
           id="g1345">
          <text
             id="text1353"
             style="font-variant:normal;font-weight:normal;font-size:15.96000004px;font-family:Arial;-inkscape-font-specification:ArialMT;writing-mode:lr-tb;fill:#000000;fill-opacity:1;fill-rule:nonzero;stroke:none"
             transform="matrix(1,0,0,-1,329.83,237.14)">
            <tspan
               id="tspan1351"
               sodipodi:role="line"
               y="0"
               x="0 8.0278797 16.90164 20.49264 24.083639 28.28112 39.676559 48.55032 52.987202 61.860958">soil water</tspan>
          </text>
        </g>
      </g>
      <path
         inkscape:connector-curvature="0"
         id="path1355"
         style="fill:#4472c4;fill-opacity:1;fill-rule:evenodd;stroke:none;stroke-width:0.35277778"
         d="m 50.468388,82.768634 h 3.671006 v -1.174891 h -3.671006 z" />
      <path
         inkscape:connector-curvature="0"
         id="path1357"
         style="fill:none;stroke:#2f528f;stroke-width:0.35277778;stroke-linecap:butt;stroke-linejoin:miter;stroke-miterlimit:10;stroke-dasharray:none;stroke-opacity:1"
         d="m 50.468388,82.768634 h 3.671006 v -1.174891 h -3.671006 z" />
      <g
         transform="matrix(0.35277777,0,0,-0.35277777,-76.559831,173.83116)"
         id="g1359">
        <g
           clip-path="url(#clipPath1365)"
           id="g1361">
          <text
             id="text1369"
             style="font-variant:normal;font-weight:normal;font-size:15.96000004px;font-family:Arial;-inkscape-font-specification:ArialMT;writing-mode:lr-tb;fill:#000000;fill-opacity:1;fill-rule:nonzero;stroke:none"
             transform="matrix(1,0,0,-1,450.77,94.272)">
            <tspan
               id="tspan1367"
               sodipodi:role="line"
               y="0"
               x="0 8.0278797 16.90164 20.49264 24.083639 28.28112 39.676559 48.55032 52.987202 61.860958">soil water</tspan>
          </text>
        </g>
      </g>
      <path
         inkscape:connector-curvature="0"
         id="path1371"
         style="fill:#4472c4;fill-opacity:1;fill-rule:evenodd;stroke:none;stroke-width:0.35277778"
         d="m 93.140387,133.1453 h 3.671006 v -1.17489 h -3.671006 z" />
      <path
         inkscape:connector-curvature="0"
         id="path1373"
         style="fill:none;stroke:#2f528f;stroke-width:0.35277778;stroke-linecap:butt;stroke-linejoin:miter;stroke-miterlimit:10;stroke-dasharray:none;stroke-opacity:1"
         d="m 93.140387,133.1453 h 3.671006 v -1.17489 h -3.671006 z" />
      <path
         inkscape:connector-curvature="0"
         id="path1375"
         style="fill:#ff0000;fill-opacity:1;fill-rule:nonzero;stroke:none;stroke-width:0.35277778"
         d="m 76.15061,88.99869 1.516944,0.994833 0.747889,0.511528 0.733778,0.518583 0.723195,0.536222 0.694972,0.550334 0.66675,0.5715 0.638528,0.592666 0.599722,0.620889 0.553861,0.649111 0.504472,0.684389 0.448028,0.719667 0.204611,0.377472 0.186972,0.384528 0.169333,0.395111 0.151695,0.409222 0.130528,0.41275 0.116416,0.430389 0.09172,0.440972 0.07408,0.448028 0.04939,0.462139 0.03528,0.465667 0.01058,0.4833 -0.01058,0.48684 -0.0247,0.49389 -0.04233,0.50447 -0.05997,0.51153 -0.07761,0.52211 -0.194027,1.05833 -0.254,1.09008 -0.299861,1.10773 -0.345723,1.13947 -0.384527,1.15358 -0.423334,1.17475 -0.448028,1.18886 -0.476249,1.19945 -0.493889,1.21003 -0.515056,1.22413 -0.973667,-0.40922 0.511528,-1.22061 v 0.004 l 0.490361,-1.20297 v 0.007 l 0.469195,-1.19591 -0.0035,0.004 0.448028,-1.17827 -0.0035,0.007 0.419805,-1.16417 -0.0035,0.0141 0.381,-1.143 -0.0071,0.0106 0.342195,-1.12183 -0.0035,0.0176 0.296333,-1.09361 -0.0035,0.0176 0.246945,-1.06891 -0.0035,0.0247 0.1905,-1.03364 -0.0035,0.0176 0.07408,-0.50447 -0.0035,0.0141 0.05997,-0.49742 -0.0035,0.0176 0.04233,-0.48683 v 0.0176 l 0.02469,-0.47625 v 0.0176 l 0.0071,-0.4692 v 0.0212 l -0.01058,-0.45509 v 0.0247 l -0.03175,-0.444501 0.0035,0.02117 -0.04939,-0.437444 0.0035,0.02822 -0.06703,-0.423333 0.0035,0.02117 -0.08819,-0.41275 0.0071,0.02822 -0.109361,-0.402166 0.0071,0.02117 -0.123472,-0.391583 0.0071,0.02469 -0.141111,-0.384528 0.0071,0.02469 -0.15875,-0.373944 0.01411,0.02469 -0.179916,-0.363361 0.01058,0.01764 -0.1905,-0.352778 0.01764,0.03175 -0.426861,-0.687916 0.02117,0.03528 -0.483305,-0.656166 0.02469,0.03175 -0.532694,-0.624417 0.02469,0.0247 -0.578555,-0.599723 0.02117,0.02117 -0.620889,-0.578556 0.01764,0.01764 -0.649112,-0.557389 0.01411,0.01411 -0.684389,-0.53975 0.01411,0.0071 -0.709084,-0.525639 0.01058,0.0071 -0.726722,-0.511528 0.0071,0.0035 -0.740833,-0.504472 0.0071,0.0035 -1.513416,-0.994833 z m 6.180667,25.654 -2.69875,2.30364 -0.225778,-3.54189 z" />
      <path
         inkscape:connector-curvature="0"
         id="path1377"
         style="fill:none;stroke:#669900;stroke-width:0.79374999;stroke-linecap:butt;stroke-linejoin:miter;stroke-miterlimit:10;stroke-dasharray:none;stroke-opacity:1"
         d="m 21.844,66.367996 c 0.917222,-1.090084 1.834445,-2.180167 3.019778,-2.928056 1.185333,-0.747889 2.638778,-1.153583 4.092222,-1.559278" />
      <path
         inkscape:connector-curvature="0"
         id="path1379"
         style="fill:none;stroke:#669900;stroke-width:0.79374999;stroke-linecap:butt;stroke-linejoin:miter;stroke-miterlimit:10;stroke-dasharray:none;stroke-opacity:1"
         d="M 21.759333,61.880662 C 20.979695,60.889357 20.200056,59.901579 19.127611,59.252468 18.055167,58.603357 16.689917,58.292913 15.324667,57.985996" />
      <path
         inkscape:connector-curvature="0"
         id="path1381"
         style="fill:none;stroke:#669900;stroke-width:0.79374999;stroke-linecap:butt;stroke-linejoin:miter;stroke-miterlimit:10;stroke-dasharray:none;stroke-opacity:1"
         d="m 21.844,57.816663 c 0.973667,-1.541639 1.950861,-3.083278 3.023306,-3.795889 1.072444,-0.716139 3.411361,-0.486834 3.411361,-0.486834 v 0 l -0.292806,0.09525" />
      <path
         inkscape:connector-curvature="0"
         id="path1383"
         style="fill:none;stroke:#669900;stroke-width:0.79374999;stroke-linecap:butt;stroke-linejoin:miter;stroke-miterlimit:10;stroke-dasharray:none;stroke-opacity:1"
         d="m 21.759333,53.329329 c -0.698499,-0.9525 -1.393472,-1.905 -2.430638,-2.518833 -1.037167,-0.613833 -2.416528,-0.889 -3.792361,-1.164167" />
      <path
         inkscape:connector-curvature="0"
         id="path1385"
         style="fill:none;stroke:#669900;stroke-width:0.79374999;stroke-linecap:butt;stroke-linejoin:miter;stroke-miterlimit:10;stroke-dasharray:none;stroke-opacity:1"
         d="m 19.219334,59.298329 c -0.419806,-0.620889 -0.839612,-1.241778 -0.970139,-1.763889 -0.127,-0.522111 0.03175,-0.945444 0.194027,-1.368777" />
      <path
         inkscape:connector-curvature="0"
         id="path1387"
         style="fill:none;stroke:#669900;stroke-width:0.79374999;stroke-linecap:butt;stroke-linejoin:miter;stroke-miterlimit:10;stroke-dasharray:none;stroke-opacity:1"
         d="m 17.187334,58.493996 c -0.596195,0.278694 -1.192389,0.557389 -1.467556,0.860778 -0.278694,0.303389 -0.236361,0.631472 -0.197555,0.959555" />
      <path
         inkscape:connector-curvature="0"
         id="path1389"
         style="fill:none;stroke:#669900;stroke-width:0.79374999;stroke-linecap:butt;stroke-linejoin:miter;stroke-miterlimit:10;stroke-dasharray:none;stroke-opacity:1"
         d="m 20.574,60.525996 c -0.560916,0 -1.121833,0 -1.538111,0.197555 -0.416278,0.197556 -0.687917,0.592667 -0.959555,0.987778" />
      <path
         inkscape:connector-curvature="0"
         id="path1391"
         style="fill:none;stroke:#669900;stroke-width:0.79374999;stroke-linecap:butt;stroke-linejoin:miter;stroke-miterlimit:10;stroke-dasharray:none;stroke-opacity:1"
         d="m 19.134667,50.619996 c -0.338667,-0.53975 -0.680861,-1.0795 -0.797278,-1.643944 -0.116417,-0.564445 -0.0071,-1.153584 0.09878,-1.742723" />
      <path
         inkscape:connector-curvature="0"
         id="path1393"
         style="fill:none;stroke:#669900;stroke-width:0.79374999;stroke-linecap:butt;stroke-linejoin:miter;stroke-miterlimit:10;stroke-dasharray:none;stroke-opacity:1"
         d="m 20.701,52.059329 c -1.001889,0.363361 -2.003778,0.726723 -2.441222,1.065389 -0.440972,0.338667 -0.3175,0.652639 -0.197556,0.966611" />
      <path
         inkscape:connector-curvature="0"
         id="path1395"
         style="fill:none;stroke:#669900;stroke-width:0.79374999;stroke-linecap:butt;stroke-linejoin:miter;stroke-miterlimit:10;stroke-dasharray:none;stroke-opacity:1"
         d="m 17.737667,50.111996 c -1.164167,0.296333 -2.324806,0.592667 -2.829278,0.889 -0.504472,0.296333 -0.34925,0.592667 -0.197555,0.889" />
      <path
         inkscape:connector-curvature="0"
         id="path1397"
         style="fill:none;stroke:#669900;stroke-width:0.79374999;stroke-linecap:butt;stroke-linejoin:miter;stroke-miterlimit:10;stroke-dasharray:none;stroke-opacity:1"
         d="m 25.654,53.625663 c 0.169333,-0.518584 0.338667,-1.037167 0.677333,-1.340556 C 26.67,51.981718 27.178,51.893524 27.686,51.805329" />
      <path
         inkscape:connector-curvature="0"
         id="path1399"
         style="fill:none;stroke:#669900;stroke-width:0.79374999;stroke-linecap:butt;stroke-linejoin:miter;stroke-miterlimit:10;stroke-dasharray:none;stroke-opacity:1"
         d="m 23.325667,55.445996 0.09878,-1.4605 c 0.162277,-0.486833 0.518583,-0.973667 0.874888,-1.4605" />
      <path
         inkscape:connector-curvature="0"
         id="path1401"
         style="fill:none;stroke:#669900;stroke-width:0.79374999;stroke-linecap:butt;stroke-linejoin:miter;stroke-miterlimit:10;stroke-dasharray:none;stroke-opacity:1"
         d="m 24.468667,54.387663 c 0.617361,0.250472 1.234722,0.500944 1.580444,0.776111 0.345722,0.275166 0.419806,0.575027 0.493889,0.874889" />
      <path
         inkscape:connector-curvature="0"
         id="path1403"
         style="fill:none;stroke:#669900;stroke-width:0.79374999;stroke-linecap:butt;stroke-linejoin:miter;stroke-miterlimit:10;stroke-dasharray:none;stroke-opacity:1"
         d="m 26.416,62.600329 c 0.179917,-0.642055 0.356306,-1.284111 0.680861,-1.658055 0.324556,-0.373945 0.797278,-0.479778 1.266472,-0.585611" />
      <path
         inkscape:connector-curvature="0"
         id="path1405"
         style="fill:none;stroke:#669900;stroke-width:0.79374999;stroke-linecap:butt;stroke-linejoin:miter;stroke-miterlimit:10;stroke-dasharray:none;stroke-opacity:1"
         d="m 23.495,64.462996 c 0.208139,-0.691445 0.416278,-1.386417 0.599722,-1.859139 0.183445,-0.472722 0.342195,-0.723195 0.500945,-0.977195" />
      <path
         inkscape:connector-curvature="0"
         id="path1407"
         style="fill:none;stroke:#669900;stroke-width:0.79374999;stroke-linecap:butt;stroke-linejoin:miter;stroke-miterlimit:10;stroke-dasharray:none;stroke-opacity:1"
         d="m 25.061333,63.446996 c 0.814917,0.239889 1.629834,0.483305 2.151945,0.578555 0.522111,0.09878 0.751416,0.04939 0.980722,0" />
      <path
         inkscape:connector-curvature="0"
         id="path1409"
         style="fill:none;stroke:#669900;stroke-width:0.79374999;stroke-linecap:butt;stroke-linejoin:miter;stroke-miterlimit:10;stroke-dasharray:none;stroke-opacity:1"
         d="m 21.833417,73.098996 v -6.656917 c 0,-1.862667 -0.03881,-3.051528 0,-4.515555 0.0388,-1.467556 0.239889,-2.794 0.239889,-4.279195 0,-1.485194 -0.497417,-3.189111 -0.239889,-4.6355 0.257528,-1.446389 1.023055,-2.744611 1.788583,-4.042833" />
      <path
         inkscape:connector-curvature="0"
         id="path1411"
         style="fill:none;stroke:#c55a11;stroke-width:0.35277778;stroke-linecap:butt;stroke-linejoin:miter;stroke-miterlimit:10;stroke-dasharray:none;stroke-opacity:1"
         d="m 21.695834,72.950829 -1.651,50.800001" />
      <path
         inkscape:connector-curvature="0"
         id="path1413"
         style="fill:none;stroke:#c55a11;stroke-width:0.35277778;stroke-linecap:butt;stroke-linejoin:miter;stroke-miterlimit:10;stroke-dasharray:none;stroke-opacity:1"
         d="m 21.949833,73.077829 1.312334,50.673001" />
      <path
         inkscape:connector-curvature="0"
         id="path1415"
         style="fill:none;stroke:#c55a11;stroke-width:0.35277778;stroke-linecap:butt;stroke-linejoin:miter;stroke-miterlimit:10;stroke-dasharray:none;stroke-opacity:1"
         d="M 21.695834,72.950829 17.674167,113.29449" />
      <path
         inkscape:connector-curvature="0"
         id="path1417"
         style="fill:none;stroke:#c55a11;stroke-width:0.35277778;stroke-linecap:butt;stroke-linejoin:miter;stroke-miterlimit:10;stroke-dasharray:none;stroke-opacity:1"
         d="M 21.949833,72.950829 26.2255,115.66516" />
      <g
         transform="matrix(0.35277777,0,0,-0.35277777,-76.559831,173.83116)"
         id="g1419">
        <g
           clip-path="url(#clipPath1425)"
           id="g1421">
          <text
             id="text1429"
             style="font-variant:normal;font-weight:normal;font-size:15.96000004px;font-family:Arial;-inkscape-font-specification:ArialMT;writing-mode:lr-tb;fill:#000000;fill-opacity:1;fill-rule:nonzero;stroke:none"
             transform="matrix(1,0,0,-1,194.81,301.39)">
            <tspan
               id="tspan1427"
               sodipodi:role="line"
               y="0"
               x="0 10.64532 14.26824 23.142 36.43668 45.31044 53.370239">Biomass</tspan>
          </text>
        </g>
      </g>
      <path
         inkscape:connector-curvature="0"
         id="path1431"
         style="fill:#4472c4;fill-opacity:1;fill-rule:evenodd;stroke:none;stroke-width:0.35277778"
         d="M 1.8273895,61.263301 H 5.498395 V 60.08841 H 1.8273895 Z" />
      <path
         inkscape:connector-curvature="0"
         id="path1433"
         style="fill:none;stroke:#2f528f;stroke-width:0.35277778;stroke-linecap:butt;stroke-linejoin:miter;stroke-miterlimit:10;stroke-dasharray:none;stroke-opacity:1"
         d="M 1.8273895,61.263301 H 5.498395 V 60.08841 H 1.8273895 Z" />
      <path
         inkscape:connector-curvature="0"
         id="path1435"
         style="fill:#ff0000;fill-opacity:1;fill-rule:nonzero;stroke:none;stroke-width:0.35277778"
         d="m 52.101749,35.852719 -1.174749,0.261055 -1.121834,0.229306 -1.083028,0.208139 -1.044222,0.194027 -1.012472,0.183445 h 0.0035 l -0.994833,0.1905 h 0.0071 l -0.980722,0.201083 h 0.01058 l -0.973666,0.22225 0.01411,-0.0035 -0.973667,0.250473 0.01764,-0.0035 -0.980722,0.289278 0.01764,-0.0071 -0.998361,0.338667 0.01764,-0.0071 -0.504472,0.186972 0.01058,-0.0035 -0.511528,0.204611 0.01058,-0.0035 -0.522111,0.218722 0.01058,-0.0035 -0.525639,0.232834 0.01058,-0.0035 -0.536222,0.257528 0.0071,-0.0071 -0.543278,0.275167 0.01058,-0.0071 -0.557389,0.292806 0.01058,-0.0035 -0.567972,0.313972 0.0071,-0.0035 -0.582084,0.338667 0.01058,-0.0071 -0.596195,0.359834 -0.73025,0.437444 0.0247,-0.01411 -0.677334,0.458611 0.02117,-0.01411 -0.635,0.469195 0.02117,-0.01764 -0.585612,0.486833 0.02117,-0.01764 -0.546805,0.504472 0.01764,-0.01764 -0.508,0.515056 0.01764,-0.02117 -0.472722,0.529167 0.01411,-0.01764 -0.4445,0.536222 0.01411,-0.01764 -0.416277,0.546806 0.01058,-0.01764 -0.391583,0.557389 0.01058,-0.01058 -0.373944,0.560916 0.01411,-0.02469 -0.342195,0.582083 -0.913694,-0.536222 0.352778,-0.596195 0.384527,-0.578555 0.402167,-0.5715 0.426861,-0.560917 0.458611,-0.553861 0.490361,-0.543278 0.525639,-0.529166 0.560917,-0.522111 0.610305,-0.504473 0.652639,-0.486833 0.6985,-0.472722 0.744361,-0.4445 -0.0035,0.0035 0.596194,-0.363361 0.592667,-0.342195 0.578555,-0.321028 0.564445,-0.299861 0.553861,-0.278694 0.550333,-0.261056 0.536222,-0.239889 0.532695,-0.22225 0.518583,-0.208138 0.518583,-0.194028 1.016,-0.342195 0.998361,-0.296333 0.991306,-0.254 0.987778,-0.225778 0.987777,-0.204611 1.001889,-0.194028 1.016,-0.183444 1.040695,-0.194028 h -0.0035 l 1.0795,-0.204611 h -0.0071 l 1.114778,-0.225778 h -0.0071 l 1.164166,-0.257527 z m -21.364221,11.250083 -2.966861,1.950861 0.218722,-3.541889 z" />
      <g
         transform="matrix(0.35277777,0,0,-0.35277777,-76.559831,173.83116)"
         id="g1437">
        <g
           clip-path="url(#clipPath1443)"
           id="g1439">
          <text
             id="text1447"
             style="font-variant:normal;font-weight:normal;font-size:15.96000004px;font-family:Arial;-inkscape-font-specification:ArialMT;writing-mode:lr-tb;fill:#000000;fill-opacity:1;fill-rule:nonzero;stroke:none"
             transform="matrix(1,0,0,-1,198.7,163.75)">
            <tspan
               id="tspan1445"
               sodipodi:role="line"
               y="0"
               x="0 8.0278797 16.90164 20.49264 24.083639 28.28112 39.676559 48.55032 52.987202 61.860958">soil water</tspan>
          </text>
        </g>
      </g>
      <path
         inkscape:connector-curvature="0"
         id="path1449"
         style="fill:#4472c4;fill-opacity:1;fill-rule:evenodd;stroke:none;stroke-width:0.35277778"
         d="m 3.8170561,108.26036 h 1.2453055 v -1.24531 h 1.1782778 v 1.24531 h 1.2453055 v 1.17827 H 6.2406394 v 1.24531 H 5.0623616 v -1.24531 H 3.8170561 Z" />
      <path
         inkscape:connector-curvature="0"
         id="path1451"
         style="fill:none;stroke:#2f528f;stroke-width:0.35277778;stroke-linecap:butt;stroke-linejoin:miter;stroke-miterlimit:10;stroke-dasharray:none;stroke-opacity:1"
         d="m 3.8170561,108.26036 h 1.2453055 v -1.24531 h 1.1782778 v 1.24531 h 1.2453055 v 1.17827 H 6.2406394 v 1.24531 H 5.0623616 v -1.24531 H 3.8170561 Z" />
      <path
         inkscape:connector-curvature="0"
         id="path1453"
         style="fill:#ff0000;fill-opacity:1;fill-rule:nonzero;stroke:none;stroke-width:0.35277778"
         d="m 18.012834,80.729579 -1.280584,0.620889 0.01058,-0.0071 -1.255889,0.652639 0.01411,-0.01058 -0.610306,0.345722 0.01411,-0.0071 -0.596194,0.359834 0.01411,-0.01058 -0.578555,0.381 0.02117,-0.01411 -0.553861,0.405695 0.02117,-0.01411 -0.536222,0.433917 0.02469,-0.02117 -0.504472,0.462139 0.02469,-0.02469 -0.47625,0.500944 0.0247,-0.02822 -0.4445,0.536222 0.02469,-0.03175 -0.405694,0.578556 0.02117,-0.03881 -0.366888,0.624417 0.02117,-0.03528 -0.324555,0.670278 0.01411,-0.03881 -0.278695,0.723195 0.01411,-0.03881 -0.2328329,0.776111 0.00706,-0.03175 -0.1905,0.8255 0.00706,-0.03175 -0.1446389,0.878417 0.00353,-0.02822 -0.1058333,0.924277 v -0.02117 l -0.070556,0.963083 v -0.02117 l -0.035278,1.001889 v -0.01764 l -0.00706,1.037167 v -0.01058 l 0.017639,1.065389 v -0.01411 l 0.045861,1.093611 v -0.0071 l 0.0635,1.118306 -0.00353,-0.01058 0.084667,1.139472 v -0.0071 l 0.098778,1.157111 v -0.0071 l 0.2046112,2.095501 -1.0512778,0.10583 -0.2081389,-2.102553 -0.098778,-1.160639 -0.084667,-1.146527 -0.0635,-1.125362 -0.045861,-1.104194 -0.017639,-1.0795 0.00706,-1.051278 0.038806,-1.019527 0.070556,-0.980723 0.1093611,-0.948972 0.1516945,-0.903111 0.1975555,-0.860778 0.2434167,-0.814916 0.2963333,-0.762 0.3421945,-0.712611 0.391583,-0.659695 0.430389,-0.610305 0.469194,-0.567973 0.500945,-0.525638 0.532694,-0.486834 0.557389,-0.451555 0.575028,-0.423334 0.599722,-0.395111 0.613833,-0.370416 0.624417,-0.352778 1.273528,-0.659695 1.284111,-0.624416 z m -7.20725,20.203581 -1.2488336,3.32317 -1.9085277,-2.99156 z" />
    </g>
  </g>
</svg>
